<?xml version="1.0" encoding="UTF-8" standalone="no"?>
<!DOCTYPE svg PUBLIC "-//W3C//DTD SVG 1.1//EN"
 "http://www.w3.org/Graphics/SVG/1.1/DTD/svg11.dtd">
<!-- Generated by graphviz version 3.0.0 (20220226.1711)
 -->
<!-- Title: dependency&#45;cruiser output Pages: 1 -->
<svg width="650pt" height="564pt"
 viewBox="0.00 0.00 650.00 564.00" xmlns="http://www.w3.org/2000/svg" xmlns:xlink="http://www.w3.org/1999/xlink">
<g id="graph0" class="graph" transform="scale(1 1) rotate(0) translate(4 560)">
<title>dependency&#45;cruiser output</title>
<polygon fill="white" stroke="transparent" points="-4,4 -4,-560 646,-560 646,4 -4,4"/>
<g id="clust1" class="cluster">
<title>cluster_src</title>
<path fill="#ffffff" stroke="black" stroke-width="2" d="M20,-8C20,-8 622,-8 622,-8 628,-8 634,-14 634,-20 634,-20 634,-536 634,-536 634,-542 628,-548 622,-548 622,-548 20,-548 20,-548 14,-548 8,-542 8,-536 8,-536 8,-20 8,-20 8,-14 14,-8 20,-8"/>
<text text-anchor="middle" x="321" y="-536.8" font-family="Helvetica,sans-Serif" font-weight="bold" font-size="9.00">src</text>
</g>
<g id="clust9" class="cluster">
<title>cluster_src/infrastructure</title>
<path fill="#ffffff" stroke="black" stroke-width="2" d="M351.5,-16C351.5,-16 421.5,-16 421.5,-16 427.5,-16 433.5,-22 433.5,-28 433.5,-28 433.5,-56 433.5,-56 433.5,-62 427.5,-68 421.5,-68 421.5,-68 351.5,-68 351.5,-68 345.5,-68 339.5,-62 339.5,-56 339.5,-56 339.5,-28 339.5,-28 339.5,-22 345.5,-16 351.5,-16"/>
<text text-anchor="middle" x="386.5" y="-56.8" font-family="Helvetica,sans-Serif" font-weight="bold" font-size="9.00">infrastructure</text>
</g>
<g id="clust2" class="cluster">
<title>cluster_src/adapters</title>
<path fill="#ffffff" stroke="black" stroke-width="2" d="M90,-157C90,-157 136,-157 136,-157 142,-157 148,-163 148,-169 148,-169 148,-197 148,-197 148,-203 142,-209 136,-209 136,-209 90,-209 90,-209 84,-209 78,-203 78,-197 78,-197 78,-169 78,-169 78,-163 84,-157 90,-157"/>
<text text-anchor="middle" x="113" y="-197.8" font-family="Helvetica,sans-Serif" font-weight="bold" font-size="9.00">adapters</text>
</g>
<g id="clust3" class="cluster">
<title>cluster_src/domain</title>
<path fill="#ffffff" stroke="black" stroke-width="2" d="M326,-76C326,-76 614,-76 614,-76 620,-76 626,-82 626,-88 626,-88 626,-510 626,-510 626,-516 620,-522 614,-522 614,-522 326,-522 326,-522 320,-522 314,-516 314,-510 314,-510 314,-88 314,-88 314,-82 320,-76 326,-76"/>
<text text-anchor="middle" x="470" y="-510.8" font-family="Helvetica,sans-Serif" font-weight="bold" font-size="9.00">domain</text>
</g>
<g id="clust4" class="cluster">
<title>cluster_src/domain/aggregates</title>
<path fill="#ffffff" stroke="black" stroke-width="2" d="M334,-444C334,-444 439,-444 439,-444 445,-444 451,-450 451,-456 451,-456 451,-484 451,-484 451,-490 445,-496 439,-496 439,-496 334,-496 334,-496 328,-496 322,-490 322,-484 322,-484 322,-456 322,-456 322,-450 328,-444 334,-444"/>
<text text-anchor="middle" x="386.5" y="-484.8" font-family="Helvetica,sans-Serif" font-weight="bold" font-size="9.00">aggregates</text>
</g>
<g id="clust6" class="cluster">
<title>cluster_src/domain/errors</title>
<path fill="#ffffff" stroke="black" stroke-width="2" d="M471,-204C471,-204 606,-204 606,-204 612,-204 618,-210 618,-216 618,-216 618,-484 618,-484 618,-490 612,-496 606,-496 606,-496 471,-496 471,-496 465,-496 459,-490 459,-484 459,-484 459,-216 459,-216 459,-210 465,-204 471,-204"/>
<text text-anchor="middle" x="538.5" y="-484.8" font-family="Helvetica,sans-Serif" font-weight="bold" font-size="9.00">errors</text>
</g>
<g id="clust7" class="cluster">
<title>cluster_src/domain/interfaces</title>
<path fill="#ffffff" stroke="black" stroke-width="2" d="M334,-294C334,-294 439,-294 439,-294 445,-294 451,-300 451,-306 451,-306 451,-424 451,-424 451,-430 445,-436 439,-436 439,-436 334,-436 334,-436 328,-436 322,-430 322,-424 322,-424 322,-306 322,-306 322,-300 328,-294 334,-294"/>
<text text-anchor="middle" x="386.5" y="-424.8" font-family="Helvetica,sans-Serif" font-weight="bold" font-size="9.00">interfaces</text>
</g>
<g id="clust8" class="cluster">
<title>cluster_src/domain/valueObjects</title>
<path fill="#ffffff" stroke="black" stroke-width="2" d="M348,-204C348,-204 425,-204 425,-204 431,-204 437,-210 437,-216 437,-216 437,-274 437,-274 437,-280 431,-286 425,-286 425,-286 348,-286 348,-286 342,-286 336,-280 336,-274 336,-274 336,-216 336,-216 336,-210 342,-204 348,-204"/>
<text text-anchor="middle" x="386.5" y="-274.8" font-family="Helvetica,sans-Serif" font-weight="bold" font-size="9.00">valueObjects</text>
</g>
<g id="clust5" class="cluster">
<title>cluster_src/domain/data</title>
<path fill="#ffffff" stroke="black" stroke-width="2" d="M346.5,-84C346.5,-84 575,-84 575,-84 581,-84 587,-90 587,-96 587,-96 587,-184 587,-184 587,-190 581,-196 575,-196 575,-196 346.5,-196 346.5,-196 340.5,-196 334.5,-190 334.5,-184 334.5,-184 334.5,-96 334.5,-96 334.5,-90 340.5,-84 346.5,-84"/>
<text text-anchor="middle" x="460.75" y="-184.8" font-family="Helvetica,sans-Serif" font-weight="bold" font-size="9.00">data</text>
</g>
<g id="clust10" class="cluster">
<title>cluster_src/usecases</title>
<path fill="#ffffff" stroke="black" stroke-width="2" d="M168,-204C168,-204 294,-204 294,-204 300,-204 306,-210 306,-216 306,-216 306,-244 306,-244 306,-250 300,-256 294,-256 294,-256 168,-256 168,-256 162,-256 156,-250 156,-244 156,-244 156,-216 156,-216 156,-210 162,-204 168,-204"/>
<text text-anchor="middle" x="231" y="-244.8" font-family="Helvetica,sans-Serif" font-weight="bold" font-size="9.00">usecases</text>
</g>
<!-- src/adapters/library.ts -->
<g id="node1" class="node">
<title>src/adapters/library.ts</title>
<g id="a_node1"><a xlink:href="src/adapters/library.ts" xlink:title="library.ts">
<path fill="#ddfeff" stroke="black" d="M134,-183C134,-183 92,-183 92,-183 89,-183 86,-180 86,-177 86,-177 86,-171 86,-171 86,-168 89,-165 92,-165 92,-165 134,-165 134,-165 137,-165 140,-168 140,-171 140,-171 140,-177 140,-177 140,-180 137,-183 134,-183"/>
<text text-anchor="start" x="95.5" y="-171.8" font-family="Helvetica,sans-Serif" font-size="9.00">library.ts</text>
</a>
</g>
</g>
<!-- src/infrastructure/validateInput.ts -->
<g id="node2" class="node">
<title>src/infrastructure/validateInput.ts</title>
<g id="a_node2"><a xlink:href="src/infrastructure/validateInput.ts" xlink:title="validateInput.ts">
<path fill="#ddfeff" stroke="black" d="M419.5,-42C419.5,-42 353.5,-42 353.5,-42 350.5,-42 347.5,-39 347.5,-36 347.5,-36 347.5,-30 347.5,-30 347.5,-27 350.5,-24 353.5,-24 353.5,-24 419.5,-24 419.5,-24 422.5,-24 425.5,-27 425.5,-30 425.5,-30 425.5,-36 425.5,-36 425.5,-39 422.5,-42 419.5,-42"/>
<text text-anchor="start" x="355.5" y="-30.8" font-family="Helvetica,sans-Serif" font-size="9.00">validateInput.ts</text>
</a>
</g>
</g>
<!-- src/adapters/library.ts&#45;&gt;src/infrastructure/validateInput.ts -->
<g id="edge1" class="edge">
<title>src/adapters/library.ts&#45;&gt;src/infrastructure/validateInput.ts</title>
<path fill="none" stroke="#000000" stroke-width="2" stroke-opacity="0.200000" d="M131.4,-164.97C178.6,-140.45 309.1,-72.68 362.39,-45"/>
<polygon fill="#000000" fill-opacity="0.200000" stroke="#000000" stroke-width="2" stroke-opacity="0.200000" points="363.54,-46.77 367.9,-42.14 361.6,-43.04 363.54,-46.77"/>
</g>
<!-- src/usecases/CalculateMaxSlaUseCase.ts -->
<g id="node3" class="node">
<title>src/usecases/CalculateMaxSlaUseCase.ts</title>
<g id="a_node3"><a xlink:href="src/usecases/CalculateMaxSlaUseCase.ts" xlink:title="CalculateMaxSlaUseCase.ts">
<path fill="#ddfeff" stroke="black" d="M292,-230C292,-230 170,-230 170,-230 167,-230 164,-227 164,-224 164,-224 164,-218 164,-218 164,-215 167,-212 170,-212 170,-212 292,-212 292,-212 295,-212 298,-215 298,-218 298,-218 298,-224 298,-224 298,-227 295,-230 292,-230"/>
<text text-anchor="start" x="172" y="-218.8" font-family="Helvetica,sans-Serif" font-size="9.00">CalculateMaxSlaUseCase.ts</text>
</a>
</g>
</g>
<!-- src/adapters/library.ts&#45;&gt;src/usecases/CalculateMaxSlaUseCase.ts -->
<g id="edge2" class="edge">
<title>src/adapters/library.ts&#45;&gt;src/usecases/CalculateMaxSlaUseCase.ts</title>
<path fill="none" stroke="#000000" stroke-width="2" stroke-opacity="0.200000" d="M136.37,-183.06C155.06,-190.64 181.82,-201.48 201.95,-209.63"/>
<polygon fill="#000000" fill-opacity="0.200000" stroke="#000000" stroke-width="2" stroke-opacity="0.200000" points="201.35,-211.66 207.7,-211.97 202.93,-207.77 201.35,-211.66"/>
</g>
<!-- src/domain/errors/InputNotAnArrayError.ts -->
<g id="node11" class="node">
<title>src/domain/errors/InputNotAnArrayError.ts</title>
<g id="a_node11"><a xlink:href="src/domain/errors/InputNotAnArrayError.ts" xlink:title="InputNotAnArrayError.ts">
<path fill="#ddfeff" stroke="black" d="M589,-230C589,-230 488,-230 488,-230 485,-230 482,-227 482,-224 482,-224 482,-218 482,-218 482,-215 485,-212 488,-212 488,-212 589,-212 589,-212 592,-212 595,-215 595,-218 595,-218 595,-224 595,-224 595,-227 592,-230 589,-230"/>
<text text-anchor="start" x="490" y="-218.8" font-family="Helvetica,sans-Serif" font-size="9.00">InputNotAnArrayError.ts</text>
</a>
</g>
</g>
<!-- src/infrastructure/validateInput.ts&#45;&gt;src/domain/errors/InputNotAnArrayError.ts -->
<g id="edge14" class="edge">
<title>src/infrastructure/validateInput.ts&#45;&gt;src/domain/errors/InputNotAnArrayError.ts</title>
<path fill="none" stroke="#000000" stroke-width="2" stroke-opacity="0.200000" d="M407.28,-42.14C422.1,-50.13 441.4,-63.25 451,-81 463.5,-104.12 442.42,-178.61 459,-199 463.6,-204.66 469.54,-208.94 476.08,-212.15"/>
<polygon fill="#000000" fill-opacity="0.200000" stroke="#000000" stroke-width="2" stroke-opacity="0.200000" points="475.36,-214.13 481.7,-214.61 477.05,-210.28 475.36,-214.13"/>
</g>
<!-- src/domain/errors/InputTooBigError.ts -->
<g id="node12" class="node">
<title>src/domain/errors/InputTooBigError.ts</title>
<g id="a_node12"><a xlink:href="src/domain/errors/InputTooBigError.ts" xlink:title="InputTooBigError.ts">
<path fill="#ddfeff" stroke="black" d="M580,-290C580,-290 497,-290 497,-290 494,-290 491,-287 491,-284 491,-284 491,-278 491,-278 491,-275 494,-272 497,-272 497,-272 580,-272 580,-272 583,-272 586,-275 586,-278 586,-278 586,-284 586,-284 586,-287 583,-290 580,-290"/>
<text text-anchor="start" x="499" y="-278.8" font-family="Helvetica,sans-Serif" font-size="9.00">InputTooBigError.ts</text>
</a>
</g>
</g>
<!-- src/infrastructure/validateInput.ts&#45;&gt;src/domain/errors/InputTooBigError.ts -->
<g id="edge15" class="edge">
<title>src/infrastructure/validateInput.ts&#45;&gt;src/domain/errors/InputTooBigError.ts</title>
<path fill="none" stroke="#000000" stroke-width="2" stroke-opacity="0.200000" d="M407.4,-42.08C422.29,-50.03 441.62,-63.14 451,-81 460.56,-99.22 445.55,-250.43 459,-266 465.67,-273.72 474.99,-278.25 484.89,-280.77"/>
<polygon fill="#000000" fill-opacity="0.200000" stroke="#000000" stroke-width="2" stroke-opacity="0.200000" points="484.46,-282.83 490.76,-282.04 485.34,-278.72 484.46,-282.83"/>
</g>
<!-- src/domain/errors/InputTooManyObjectsError.ts -->
<g id="node13" class="node">
<title>src/domain/errors/InputTooManyObjectsError.ts</title>
<g id="a_node13"><a xlink:href="src/domain/errors/InputTooManyObjectsError.ts" xlink:title="InputTooManyObjectsError.ts">
<path fill="#ddfeff" stroke="black" d="M599.5,-260C599.5,-260 477.5,-260 477.5,-260 474.5,-260 471.5,-257 471.5,-254 471.5,-254 471.5,-248 471.5,-248 471.5,-245 474.5,-242 477.5,-242 477.5,-242 599.5,-242 599.5,-242 602.5,-242 605.5,-245 605.5,-248 605.5,-248 605.5,-254 605.5,-254 605.5,-257 602.5,-260 599.5,-260"/>
<text text-anchor="start" x="479.5" y="-248.8" font-family="Helvetica,sans-Serif" font-size="9.00">InputTooManyObjectsError.ts</text>
</a>
</g>
</g>
<!-- src/infrastructure/validateInput.ts&#45;&gt;src/domain/errors/InputTooManyObjectsError.ts -->
<g id="edge16" class="edge">
<title>src/infrastructure/validateInput.ts&#45;&gt;src/domain/errors/InputTooManyObjectsError.ts</title>
<path fill="none" stroke="#000000" stroke-width="2" stroke-opacity="0.200000" d="M407.36,-42.1C422.22,-50.07 441.55,-63.17 451,-81 459.08,-96.24 447.67,-223 459,-236 461.06,-238.36 463.36,-240.42 465.85,-242.22"/>
<polygon fill="#000000" fill-opacity="0.200000" stroke="#000000" stroke-width="2" stroke-opacity="0.200000" points="465.01,-244.16 471.21,-245.54 467.22,-240.59 465.01,-244.16"/>
</g>
<!-- src/domain/aggregates/ServiceSlaAggregate.ts -->
<g id="node4" class="node">
<title>src/domain/aggregates/ServiceSlaAggregate.ts</title>
<g id="a_node4"><a xlink:href="src/domain/aggregates/ServiceSlaAggregate.ts" xlink:title="ServiceSlaAggregate.ts">
<path fill="#ddfeff" stroke="black" d="M437,-470C437,-470 336,-470 336,-470 333,-470 330,-467 330,-464 330,-464 330,-458 330,-458 330,-455 333,-452 336,-452 336,-452 437,-452 437,-452 440,-452 443,-455 443,-458 443,-458 443,-464 443,-464 443,-467 440,-470 437,-470"/>
<text text-anchor="start" x="338" y="-458.8" font-family="Helvetica,sans-Serif" font-size="9.00">ServiceSlaAggregate.ts</text>
</a>
</g>
</g>
<!-- src/usecases/CalculateMaxSlaUseCase.ts&#45;&gt;src/domain/aggregates/ServiceSlaAggregate.ts -->
<g id="edge17" class="edge">
<title>src/usecases/CalculateMaxSlaUseCase.ts&#45;&gt;src/domain/aggregates/ServiceSlaAggregate.ts</title>
<path fill="none" stroke="#000000" stroke-width="2" stroke-opacity="0.200000" d="M232.68,-230.45C235.61,-264.05 250.08,-378.88 314,-439 318.47,-443.2 323.73,-446.61 329.32,-449.36"/>
<polygon fill="#000000" fill-opacity="0.200000" stroke="#000000" stroke-width="2" stroke-opacity="0.200000" points="328.69,-451.37 335.02,-451.9 330.4,-447.54 328.69,-451.37"/>
</g>
<!-- src/domain/data/serviceSlaData.ts -->
<g id="node7" class="node">
<title>src/domain/data/serviceSlaData.ts</title>
<g id="a_node7"><a xlink:href="src/domain/data/serviceSlaData.ts" xlink:title="serviceSlaData.ts">
<path fill="#ddfeff" stroke="black" d="M424.5,-155C424.5,-155 348.5,-155 348.5,-155 345.5,-155 342.5,-152 342.5,-149 342.5,-149 342.5,-143 342.5,-143 342.5,-140 345.5,-137 348.5,-137 348.5,-137 424.5,-137 424.5,-137 427.5,-137 430.5,-140 430.5,-143 430.5,-143 430.5,-149 430.5,-149 430.5,-152 427.5,-155 424.5,-155"/>
<text text-anchor="start" x="350.5" y="-143.8" font-family="Helvetica,sans-Serif" font-size="9.00">serviceSlaData.ts</text>
</a>
</g>
</g>
<!-- src/usecases/CalculateMaxSlaUseCase.ts&#45;&gt;src/domain/data/serviceSlaData.ts -->
<g id="edge18" class="edge">
<title>src/usecases/CalculateMaxSlaUseCase.ts&#45;&gt;src/domain/data/serviceSlaData.ts</title>
<path fill="none" stroke="#000000" stroke-width="2" stroke-opacity="0.200000" d="M250.52,-211.95C278.29,-198.38 330.75,-172.75 361.45,-157.75"/>
<polygon fill="#000000" fill-opacity="0.200000" stroke="#000000" stroke-width="2" stroke-opacity="0.200000" points="362.45,-159.6 366.92,-155.08 360.61,-155.83 362.45,-159.6"/>
</g>
<!-- src/domain/valueObjects/ServiceEntries.ts -->
<g id="node22" class="node">
<title>src/domain/valueObjects/ServiceEntries.ts</title>
<g id="a_node22"><a xlink:href="src/domain/valueObjects/ServiceEntries.ts" xlink:title="ServiceEntries.ts">
<path fill="#ddfeff" stroke="black" d="M423,-230C423,-230 350,-230 350,-230 347,-230 344,-227 344,-224 344,-224 344,-218 344,-218 344,-215 347,-212 350,-212 350,-212 423,-212 423,-212 426,-212 429,-215 429,-218 429,-218 429,-224 429,-224 429,-227 426,-230 423,-230"/>
<text text-anchor="start" x="352" y="-218.8" font-family="Helvetica,sans-Serif" font-size="9.00">ServiceEntries.ts</text>
</a>
</g>
</g>
<!-- src/usecases/CalculateMaxSlaUseCase.ts&#45;&gt;src/domain/valueObjects/ServiceEntries.ts -->
<g id="edge19" class="edge">
<title>src/usecases/CalculateMaxSlaUseCase.ts&#45;&gt;src/domain/valueObjects/ServiceEntries.ts</title>
<path fill="none" stroke="#000000" stroke-width="2" stroke-opacity="0.200000" d="M298.43,-221C311.66,-221 325.31,-221 337.76,-221"/>
<polygon fill="#000000" fill-opacity="0.200000" stroke="#000000" stroke-width="2" stroke-opacity="0.200000" points="337.77,-223.1 343.77,-221 337.77,-218.9 337.77,-223.1"/>
</g>
<!-- src/domain/valueObjects/ServiceSlas.ts -->
<g id="node23" class="node">
<title>src/domain/valueObjects/ServiceSlas.ts</title>
<g id="a_node23"><a xlink:href="src/domain/valueObjects/ServiceSlas.ts" xlink:title="ServiceSlas.ts">
<path fill="#ddfeff" stroke="black" d="M417.5,-260C417.5,-260 355.5,-260 355.5,-260 352.5,-260 349.5,-257 349.5,-254 349.5,-254 349.5,-248 349.5,-248 349.5,-245 352.5,-242 355.5,-242 355.5,-242 417.5,-242 417.5,-242 420.5,-242 423.5,-245 423.5,-248 423.5,-248 423.5,-254 423.5,-254 423.5,-257 420.5,-260 417.5,-260"/>
<text text-anchor="start" x="357.5" y="-248.8" font-family="Helvetica,sans-Serif" font-size="9.00">ServiceSlas.ts</text>
</a>
</g>
</g>
<!-- src/usecases/CalculateMaxSlaUseCase.ts&#45;&gt;src/domain/valueObjects/ServiceSlas.ts -->
<g id="edge20" class="edge">
<title>src/usecases/CalculateMaxSlaUseCase.ts&#45;&gt;src/domain/valueObjects/ServiceSlas.ts</title>
<path fill="none" stroke="#000000" stroke-width="2" stroke-opacity="0.200000" d="M278.06,-230C298.7,-234.04 322.9,-238.77 343.1,-242.71"/>
<polygon fill="#000000" fill-opacity="0.200000" stroke="#000000" stroke-width="2" stroke-opacity="0.200000" points="342.94,-244.82 349.23,-243.91 343.74,-240.7 342.94,-244.82"/>
</g>
<!-- src/domain/errors/MissingServiceEntriesError.ts -->
<g id="node5" class="node">
<title>src/domain/errors/MissingServiceEntriesError.ts</title>
<g id="a_node5"><a xlink:href="src/domain/errors/MissingServiceEntriesError.ts" xlink:title="MissingServiceEntriesError.ts">
<path fill="#ddfeff" stroke="black" d="M601,-470C601,-470 476,-470 476,-470 473,-470 470,-467 470,-464 470,-464 470,-458 470,-458 470,-455 473,-452 476,-452 476,-452 601,-452 601,-452 604,-452 607,-455 607,-458 607,-458 607,-464 607,-464 607,-467 604,-470 601,-470"/>
<text text-anchor="start" x="478" y="-458.8" font-family="Helvetica,sans-Serif" font-size="9.00">MissingServiceEntriesError.ts</text>
</a>
</g>
</g>
<!-- src/domain/aggregates/ServiceSlaAggregate.ts&#45;&gt;src/domain/errors/MissingServiceEntriesError.ts -->
<g id="edge3" class="edge">
<title>src/domain/aggregates/ServiceSlaAggregate.ts&#45;&gt;src/domain/errors/MissingServiceEntriesError.ts</title>
<path fill="none" stroke="#000000" stroke-width="2" stroke-opacity="0.200000" d="M443.35,-461C449.99,-461 456.83,-461 463.67,-461"/>
<polygon fill="#000000" fill-opacity="0.200000" stroke="#000000" stroke-width="2" stroke-opacity="0.200000" points="463.93,-463.1 469.93,-461 463.93,-458.9 463.93,-463.1"/>
</g>
<!-- src/domain/errors/ServiceMissingSlaError.ts -->
<g id="node6" class="node">
<title>src/domain/errors/ServiceMissingSlaError.ts</title>
<g id="a_node6"><a xlink:href="src/domain/errors/ServiceMissingSlaError.ts" xlink:title="ServiceMissingSlaError.ts">
<path fill="#ddfeff" stroke="black" d="M593.5,-440C593.5,-440 483.5,-440 483.5,-440 480.5,-440 477.5,-437 477.5,-434 477.5,-434 477.5,-428 477.5,-428 477.5,-425 480.5,-422 483.5,-422 483.5,-422 593.5,-422 593.5,-422 596.5,-422 599.5,-425 599.5,-428 599.5,-428 599.5,-434 599.5,-434 599.5,-437 596.5,-440 593.5,-440"/>
<text text-anchor="start" x="485.5" y="-428.8" font-family="Helvetica,sans-Serif" font-size="9.00">ServiceMissingSlaError.ts</text>
</a>
</g>
</g>
<!-- src/domain/aggregates/ServiceSlaAggregate.ts&#45;&gt;src/domain/errors/ServiceMissingSlaError.ts -->
<g id="edge4" class="edge">
<title>src/domain/aggregates/ServiceSlaAggregate.ts&#45;&gt;src/domain/errors/ServiceMissingSlaError.ts</title>
<path fill="none" stroke="#000000" stroke-width="2" stroke-opacity="0.200000" d="M429.82,-451.99C439.41,-449.99 449.55,-447.89 459,-446 466.81,-444.44 475.06,-442.82 483.16,-441.25"/>
<polygon fill="#000000" fill-opacity="0.200000" stroke="#000000" stroke-width="2" stroke-opacity="0.200000" points="483.82,-443.26 489.32,-440.07 483.03,-439.14 483.82,-443.26"/>
</g>
<!-- src/domain/data/slaDataAws.ts -->
<g id="node8" class="node">
<title>src/domain/data/slaDataAws.ts</title>
<g id="a_node8"><a xlink:href="src/domain/data/slaDataAws.ts" xlink:title="slaDataAws.ts">
<path fill="#ddfeff" stroke="black" d="M569.5,-110C569.5,-110 507.5,-110 507.5,-110 504.5,-110 501.5,-107 501.5,-104 501.5,-104 501.5,-98 501.5,-98 501.5,-95 504.5,-92 507.5,-92 507.5,-92 569.5,-92 569.5,-92 572.5,-92 575.5,-95 575.5,-98 575.5,-98 575.5,-104 575.5,-104 575.5,-107 572.5,-110 569.5,-110"/>
<text text-anchor="start" x="509.5" y="-98.8" font-family="Helvetica,sans-Serif" font-size="9.00">slaDataAws.ts</text>
</a>
</g>
</g>
<!-- src/domain/data/serviceSlaData.ts&#45;&gt;src/domain/data/slaDataAws.ts -->
<g id="edge5" class="edge">
<title>src/domain/data/serviceSlaData.ts&#45;&gt;src/domain/data/slaDataAws.ts</title>
<path fill="none" stroke="#000000" stroke-width="2" stroke-opacity="0.200000" d="M406.22,-136.87C420.42,-130.27 440.57,-121.56 459,-116 470.54,-112.52 483.28,-109.67 495.09,-107.43"/>
<polygon fill="#000000" fill-opacity="0.200000" stroke="#000000" stroke-width="2" stroke-opacity="0.200000" points="495.64,-109.47 501.16,-106.32 494.88,-105.33 495.64,-109.47"/>
</g>
<!-- src/domain/data/slaDataAzure.ts -->
<g id="node9" class="node">
<title>src/domain/data/slaDataAzure.ts</title>
<g id="a_node9"><a xlink:href="src/domain/data/slaDataAzure.ts" xlink:title="slaDataAzure.ts">
<path fill="#ddfeff" stroke="black" d="M573,-140C573,-140 504,-140 504,-140 501,-140 498,-137 498,-134 498,-134 498,-128 498,-128 498,-125 501,-122 504,-122 504,-122 573,-122 573,-122 576,-122 579,-125 579,-128 579,-128 579,-134 579,-134 579,-137 576,-140 573,-140"/>
<text text-anchor="start" x="506" y="-128.8" font-family="Helvetica,sans-Serif" font-size="9.00">slaDataAzure.ts</text>
</a>
</g>
</g>
<!-- src/domain/data/serviceSlaData.ts&#45;&gt;src/domain/data/slaDataAzure.ts -->
<g id="edge6" class="edge">
<title>src/domain/data/serviceSlaData.ts&#45;&gt;src/domain/data/slaDataAzure.ts</title>
<path fill="none" stroke="#000000" stroke-width="2" stroke-opacity="0.200000" d="M430.89,-141.66C449.94,-139.76 472.32,-137.52 491.64,-135.59"/>
<polygon fill="#000000" fill-opacity="0.200000" stroke="#000000" stroke-width="2" stroke-opacity="0.200000" points="492.04,-137.66 497.8,-134.97 491.62,-133.48 492.04,-137.66"/>
</g>
<!-- src/domain/data/slaDataGcp.ts -->
<g id="node10" class="node">
<title>src/domain/data/slaDataGcp.ts</title>
<g id="a_node10"><a xlink:href="src/domain/data/slaDataGcp.ts" xlink:title="slaDataGcp.ts">
<path fill="#ddfeff" stroke="black" d="M569.5,-170C569.5,-170 507.5,-170 507.5,-170 504.5,-170 501.5,-167 501.5,-164 501.5,-164 501.5,-158 501.5,-158 501.5,-155 504.5,-152 507.5,-152 507.5,-152 569.5,-152 569.5,-152 572.5,-152 575.5,-155 575.5,-158 575.5,-158 575.5,-164 575.5,-164 575.5,-167 572.5,-170 569.5,-170"/>
<text text-anchor="start" x="509.5" y="-158.8" font-family="Helvetica,sans-Serif" font-size="9.00">slaDataGcp.ts</text>
</a>
</g>
</g>
<!-- src/domain/data/serviceSlaData.ts&#45;&gt;src/domain/data/slaDataGcp.ts -->
<g id="edge7" class="edge">
<title>src/domain/data/serviceSlaData.ts&#45;&gt;src/domain/data/slaDataGcp.ts</title>
<path fill="none" stroke="#000000" stroke-width="2" stroke-opacity="0.200000" d="M430.89,-150.34C451.12,-152.36 475.1,-154.76 495.2,-156.77"/>
<polygon fill="#000000" fill-opacity="0.200000" stroke="#000000" stroke-width="2" stroke-opacity="0.200000" points="495.12,-158.87 501.3,-157.38 495.54,-154.69 495.12,-158.87"/>
</g>
<!-- src/domain/errors/InvalidServiceDataError.ts -->
<g id="node14" class="node">
<title>src/domain/errors/InvalidServiceDataError.ts</title>
<g id="a_node14"><a xlink:href="src/domain/errors/InvalidServiceDataError.ts" xlink:title="InvalidServiceDataError.ts">
<path fill="#ddfeff" stroke="black" d="M594,-410C594,-410 483,-410 483,-410 480,-410 477,-407 477,-404 477,-404 477,-398 477,-398 477,-395 480,-392 483,-392 483,-392 594,-392 594,-392 597,-392 600,-395 600,-398 600,-398 600,-404 600,-404 600,-407 597,-410 594,-410"/>
<text text-anchor="start" x="485" y="-398.8" font-family="Helvetica,sans-Serif" font-size="9.00">InvalidServiceDataError.ts</text>
</a>
</g>
</g>
<!-- src/domain/errors/InvalidServiceInputDataError.ts -->
<g id="node15" class="node">
<title>src/domain/errors/InvalidServiceInputDataError.ts</title>
<g id="a_node15"><a xlink:href="src/domain/errors/InvalidServiceInputDataError.ts" xlink:title="InvalidServiceInputDataError.ts">
<path fill="#ddfeff" stroke="black" d="M604,-350C604,-350 473,-350 473,-350 470,-350 467,-347 467,-344 467,-344 467,-338 467,-338 467,-335 470,-332 473,-332 473,-332 604,-332 604,-332 607,-332 610,-335 610,-338 610,-338 610,-344 610,-344 610,-347 607,-350 604,-350"/>
<text text-anchor="start" x="475" y="-338.8" font-family="Helvetica,sans-Serif" font-size="9.00">InvalidServiceInputDataError.ts</text>
</a>
</g>
</g>
<!-- src/domain/errors/MissingItemsToValidateError.ts -->
<g id="node16" class="node">
<title>src/domain/errors/MissingItemsToValidateError.ts</title>
<g id="a_node16"><a xlink:href="src/domain/errors/MissingItemsToValidateError.ts" xlink:title="MissingItemsToValidateError.ts">
<path fill="#ddfeff" stroke="black" d="M603.5,-380C603.5,-380 473.5,-380 473.5,-380 470.5,-380 467.5,-377 467.5,-374 467.5,-374 467.5,-368 467.5,-368 467.5,-365 470.5,-362 473.5,-362 473.5,-362 603.5,-362 603.5,-362 606.5,-362 609.5,-365 609.5,-368 609.5,-368 609.5,-374 609.5,-374 609.5,-377 606.5,-380 603.5,-380"/>
<text text-anchor="start" x="475.5" y="-368.8" font-family="Helvetica,sans-Serif" font-size="9.00">MissingItemsToValidateError.ts</text>
</a>
</g>
</g>
<!-- src/domain/errors/UnknownInputError.ts -->
<g id="node17" class="node">
<title>src/domain/errors/UnknownInputError.ts</title>
<g id="a_node17"><a xlink:href="src/domain/errors/UnknownInputError.ts" xlink:title="UnknownInputError.ts">
<path fill="#ddfeff" stroke="black" d="M585,-320C585,-320 492,-320 492,-320 489,-320 486,-317 486,-314 486,-314 486,-308 486,-308 486,-305 489,-302 492,-302 492,-302 585,-302 585,-302 588,-302 591,-305 591,-308 591,-308 591,-314 591,-314 591,-317 588,-320 585,-320"/>
<text text-anchor="start" x="494" y="-308.8" font-family="Helvetica,sans-Serif" font-size="9.00">UnknownInputError.ts</text>
</a>
</g>
</g>
<!-- src/domain/interfaces/ServiceEntry.ts -->
<g id="node18" class="node">
<title>src/domain/interfaces/ServiceEntry.ts</title>
<g id="a_node18"><a xlink:href="src/domain/interfaces/ServiceEntry.ts" xlink:title="ServiceEntry.ts">
<path fill="#ccffcc" stroke="black" d="M419,-410C419,-410 354,-410 354,-410 351,-410 348,-407 348,-404 348,-404 348,-398 348,-398 348,-395 351,-392 354,-392 354,-392 419,-392 419,-392 422,-392 425,-395 425,-398 425,-398 425,-404 425,-404 425,-407 422,-410 419,-410"/>
<text text-anchor="start" x="356" y="-398.8" font-family="Helvetica,sans-Serif" font-size="9.00">ServiceEntry.ts</text>
</a>
</g>
</g>
<!-- src/domain/interfaces/ServiceSla.ts -->
<g id="node19" class="node">
<title>src/domain/interfaces/ServiceSla.ts</title>
<g id="a_node19"><a xlink:href="src/domain/interfaces/ServiceSla.ts" xlink:title="ServiceSla.ts">
<path fill="#ccffcc" stroke="black" d="M415.5,-380C415.5,-380 357.5,-380 357.5,-380 354.5,-380 351.5,-377 351.5,-374 351.5,-374 351.5,-368 351.5,-368 351.5,-365 354.5,-362 357.5,-362 357.5,-362 415.5,-362 415.5,-362 418.5,-362 421.5,-365 421.5,-368 421.5,-368 421.5,-374 421.5,-374 421.5,-377 418.5,-380 415.5,-380"/>
<text text-anchor="start" x="359.5" y="-368.8" font-family="Helvetica,sans-Serif" font-size="9.00">ServiceSla.ts</text>
</a>
</g>
</g>
<!-- src/domain/interfaces/ServiceSlaAggregate.ts -->
<g id="node20" class="node">
<title>src/domain/interfaces/ServiceSlaAggregate.ts</title>
<g id="a_node20"><a xlink:href="src/domain/interfaces/ServiceSlaAggregate.ts" xlink:title="ServiceSlaAggregate.ts">
<path fill="#ccffcc" stroke="black" d="M437,-350C437,-350 336,-350 336,-350 333,-350 330,-347 330,-344 330,-344 330,-338 330,-338 330,-335 333,-332 336,-332 336,-332 437,-332 437,-332 440,-332 443,-335 443,-338 443,-338 443,-344 443,-344 443,-347 440,-350 437,-350"/>
<text text-anchor="start" x="338" y="-338.8" font-family="Helvetica,sans-Serif" font-size="9.00">ServiceSlaAggregate.ts</text>
</a>
</g>
</g>
<!-- src/domain/interfaces/SlaMaxInput.ts -->
<g id="node21" class="node">
<title>src/domain/interfaces/SlaMaxInput.ts</title>
<g id="a_node21"><a xlink:href="src/domain/interfaces/SlaMaxInput.ts" xlink:title="SlaMaxInput.ts">
<path fill="#ccffcc" stroke="black" d="M419,-320C419,-320 354,-320 354,-320 351,-320 348,-317 348,-314 348,-314 348,-308 348,-308 348,-305 351,-302 354,-302 354,-302 419,-302 419,-302 422,-302 425,-305 425,-308 425,-308 425,-314 425,-314 425,-317 422,-320 419,-320"/>
<text text-anchor="start" x="356" y="-308.8" font-family="Helvetica,sans-Serif" font-size="9.00">SlaMaxInput.ts</text>
</a>
</g>
</g>
<!-- src/domain/valueObjects/ServiceEntries.ts&#45;&gt;src/domain/errors/InvalidServiceInputDataError.ts -->
<g id="edge8" class="edge">
<title>src/domain/valueObjects/ServiceEntries.ts&#45;&gt;src/domain/errors/InvalidServiceInputDataError.ts</title>
<path fill="none" stroke="#000000" stroke-width="2" stroke-opacity="0.200000" d="M429.17,-223.17C437.48,-225.53 445.36,-229.49 451,-236 464.14,-251.18 445.53,-311.11 459,-326 459.87,-326.96 460.79,-327.88 461.74,-328.74"/>
<polygon fill="#000000" fill-opacity="0.200000" stroke="#000000" stroke-width="2" stroke-opacity="0.200000" points="460.76,-330.65 466.78,-332.68 463.35,-327.34 460.76,-330.65"/>
</g>
<!-- src/domain/valueObjects/ServiceEntries.ts&#45;&gt;src/domain/errors/MissingItemsToValidateError.ts -->
<g id="edge9" class="edge">
<title>src/domain/valueObjects/ServiceEntries.ts&#45;&gt;src/domain/errors/MissingItemsToValidateError.ts</title>
<path fill="none" stroke="#000000" stroke-width="2" stroke-opacity="0.200000" d="M429.28,-223.08C437.58,-225.44 445.44,-229.43 451,-236 468.27,-256.39 441.29,-335.98 459,-356 460.09,-357.23 461.24,-358.37 462.45,-359.44"/>
<polygon fill="#000000" fill-opacity="0.200000" stroke="#000000" stroke-width="2" stroke-opacity="0.200000" points="461.35,-361.24 467.39,-363.2 463.89,-357.9 461.35,-361.24"/>
</g>
<!-- src/domain/valueObjects/ServiceEntries.ts&#45;&gt;src/domain/errors/UnknownInputError.ts -->
<g id="edge10" class="edge">
<title>src/domain/valueObjects/ServiceEntries.ts&#45;&gt;src/domain/errors/UnknownInputError.ts</title>
<path fill="none" stroke="#000000" stroke-width="2" stroke-opacity="0.200000" d="M429.29,-223.45C437.49,-225.81 445.3,-229.7 451,-236 469.05,-255.94 440.52,-276.45 459,-296 464.7,-302.03 472.01,-306.06 479.88,-308.69"/>
<polygon fill="#000000" fill-opacity="0.200000" stroke="#000000" stroke-width="2" stroke-opacity="0.200000" points="479.64,-310.81 485.99,-310.45 480.8,-306.77 479.64,-310.81"/>
</g>
<!-- src/domain/valueObjects/ServiceSlas.ts&#45;&gt;src/domain/errors/InvalidServiceDataError.ts -->
<g id="edge11" class="edge">
<title>src/domain/valueObjects/ServiceSlas.ts&#45;&gt;src/domain/errors/InvalidServiceDataError.ts</title>
<path fill="none" stroke="#000000" stroke-width="2" stroke-opacity="0.200000" d="M412.11,-260.01C425.96,-266.44 442.2,-276.53 451,-291 462.01,-309.1 444.82,-370.26 459,-386 462.54,-389.93 466.76,-393.02 471.38,-395.44"/>
<polygon fill="#000000" fill-opacity="0.200000" stroke="#000000" stroke-width="2" stroke-opacity="0.200000" points="470.65,-397.41 476.98,-397.97 472.38,-393.58 470.65,-397.41"/>
</g>
<!-- src/domain/valueObjects/ServiceSlas.ts&#45;&gt;src/domain/errors/MissingItemsToValidateError.ts -->
<g id="edge12" class="edge">
<title>src/domain/valueObjects/ServiceSlas.ts&#45;&gt;src/domain/errors/MissingItemsToValidateError.ts</title>
<path fill="none" stroke="#000000" stroke-width="2" stroke-opacity="0.200000" d="M411.91,-260.14C425.69,-266.61 441.92,-276.7 451,-291 466.6,-315.57 439.11,-334.75 459,-356 460.08,-357.15 461.22,-358.23 462.41,-359.24"/>
<polygon fill="#000000" fill-opacity="0.200000" stroke="#000000" stroke-width="2" stroke-opacity="0.200000" points="461.16,-360.93 467.23,-362.81 463.66,-357.56 461.16,-360.93"/>
</g>
<!-- src/index.ts -->
<g id="node24" class="node">
<title>src/index.ts</title>
<g id="a_node24"><a xlink:href="src/index.ts" xlink:title="index.ts">
<path fill="#ddfeff" stroke="black" d="M64,-183C64,-183 22,-183 22,-183 19,-183 16,-180 16,-177 16,-177 16,-171 16,-171 16,-168 19,-165 22,-165 22,-165 64,-165 64,-165 67,-165 70,-168 70,-171 70,-171 70,-177 70,-177 70,-180 67,-183 64,-183"/>
<text text-anchor="start" x="27" y="-171.8" font-family="Helvetica,sans-Serif" font-size="9.00">index.ts</text>
</a>
</g>
</g>
<!-- src/index.ts&#45;&gt;src/adapters/library.ts -->
<g id="edge13" class="edge">
<title>src/index.ts&#45;&gt;src/adapters/library.ts</title>
<path fill="none" stroke="#000000" stroke-width="2" stroke-opacity="0.200000" d="M70.1,-174C73.12,-174 76.23,-174 79.33,-174"/>
<polygon fill="#000000" fill-opacity="0.200000" stroke="#000000" stroke-width="2" stroke-opacity="0.200000" points="79.64,-176.1 85.64,-174 79.64,-171.9 79.64,-176.1"/>
</g>
</g>
</svg>
