<?xml version="1.0" encoding="UTF-8" standalone="no"?>
<!DOCTYPE svg PUBLIC "-//W3C//DTD SVG 1.1//EN"
 "http://www.w3.org/Graphics/SVG/1.1/DTD/svg11.dtd">
<!-- Generated by graphviz version 2.50.0 (0)
 -->
<!-- Title: dependency&#45;cruiser output Pages: 1 -->
<svg width="679pt" height="564pt"
 viewBox="0.00 0.00 679.00 564.00" xmlns="http://www.w3.org/2000/svg" xmlns:xlink="http://www.w3.org/1999/xlink">
<g id="graph0" class="graph" transform="scale(1 1) rotate(0) translate(4 560)">
<title>dependency&#45;cruiser output</title>
<polygon fill="white" stroke="transparent" points="-4,4 -4,-560 675,-560 675,4 -4,4"/>
<g id="clust1" class="cluster">
<title>cluster_src</title>
<path fill="#ffffff" stroke="black" stroke-width="2" d="M20,-8C20,-8 651,-8 651,-8 657,-8 663,-14 663,-20 663,-20 663,-536 663,-536 663,-542 657,-548 651,-548 651,-548 20,-548 20,-548 14,-548 8,-542 8,-536 8,-536 8,-20 8,-20 8,-14 14,-8 20,-8"/>
<text text-anchor="middle" x="335.5" y="-536.8" font-family="Helvetica,sans-Serif" font-weight="bold" font-size="9.00">src</text>
</g>
<g id="clust2" class="cluster">
<title>cluster_src/adapters</title>
<path fill="#ffffff" stroke="black" stroke-width="2" d="M90,-89C90,-89 137,-89 137,-89 143,-89 149,-95 149,-101 149,-101 149,-129 149,-129 149,-135 143,-141 137,-141 137,-141 90,-141 90,-141 84,-141 78,-135 78,-129 78,-129 78,-101 78,-101 78,-95 84,-89 90,-89"/>
<text text-anchor="middle" x="113.5" y="-129.8" font-family="Helvetica,sans-Serif" font-weight="bold" font-size="9.00">adapters</text>
</g>
<g id="clust3" class="cluster">
<title>cluster_src/domain</title>
<path fill="#ffffff" stroke="black" stroke-width="2" d="M331,-76C331,-76 643,-76 643,-76 649,-76 655,-82 655,-88 655,-88 655,-510 655,-510 655,-516 649,-522 643,-522 643,-522 331,-522 331,-522 325,-522 319,-516 319,-510 319,-510 319,-88 319,-88 319,-82 325,-76 331,-76"/>
<text text-anchor="middle" x="487" y="-510.8" font-family="Helvetica,sans-Serif" font-weight="bold" font-size="9.00">domain</text>
</g>
<g id="clust4" class="cluster">
<title>cluster_src/domain/aggregates</title>
<path fill="#ffffff" stroke="black" stroke-width="2" d="M339,-324C339,-324 453,-324 453,-324 459,-324 465,-330 465,-336 465,-336 465,-364 465,-364 465,-370 459,-376 453,-376 453,-376 339,-376 339,-376 333,-376 327,-370 327,-364 327,-364 327,-336 327,-336 327,-330 333,-324 339,-324"/>
<text text-anchor="middle" x="396" y="-364.8" font-family="Helvetica,sans-Serif" font-weight="bold" font-size="9.00">aggregates</text>
</g>
<g id="clust5" class="cluster">
<title>cluster_src/domain/data</title>
<path fill="#ffffff" stroke="black" stroke-width="2" d="M353,-384C353,-384 587,-384 587,-384 593,-384 599,-390 599,-396 599,-396 599,-484 599,-484 599,-490 593,-496 587,-496 587,-496 353,-496 353,-496 347,-496 341,-490 341,-484 341,-484 341,-396 341,-396 341,-390 347,-384 353,-384"/>
<text text-anchor="middle" x="470" y="-484.8" font-family="Helvetica,sans-Serif" font-weight="bold" font-size="9.00">data</text>
</g>
<g id="clust6" class="cluster">
<title>cluster_src/domain/errors</title>
<path fill="#ffffff" stroke="black" stroke-width="2" d="M485,-84C485,-84 635,-84 635,-84 641,-84 647,-90 647,-96 647,-96 647,-364 647,-364 647,-370 641,-376 635,-376 635,-376 485,-376 485,-376 479,-376 473,-370 473,-364 473,-364 473,-96 473,-96 473,-90 479,-84 485,-84"/>
<text text-anchor="middle" x="560" y="-364.8" font-family="Helvetica,sans-Serif" font-weight="bold" font-size="9.00">errors</text>
</g>
<g id="clust7" class="cluster">
<title>cluster_src/domain/interfaces</title>
<path fill="#ffffff" stroke="black" stroke-width="2" d="M339,-174C339,-174 453,-174 453,-174 459,-174 465,-180 465,-186 465,-186 465,-304 465,-304 465,-310 459,-316 453,-316 453,-316 339,-316 339,-316 333,-316 327,-310 327,-304 327,-304 327,-186 327,-186 327,-180 333,-174 339,-174"/>
<text text-anchor="middle" x="396" y="-304.8" font-family="Helvetica,sans-Serif" font-weight="bold" font-size="9.00">interfaces</text>
</g>
<g id="clust8" class="cluster">
<title>cluster_src/domain/valueObjects</title>
<path fill="#ffffff" stroke="black" stroke-width="2" d="M354,-84C354,-84 438,-84 438,-84 444,-84 450,-90 450,-96 450,-96 450,-154 450,-154 450,-160 444,-166 438,-166 438,-166 354,-166 354,-166 348,-166 342,-160 342,-154 342,-154 342,-96 342,-96 342,-90 348,-84 354,-84"/>
<text text-anchor="middle" x="396" y="-154.8" font-family="Helvetica,sans-Serif" font-weight="bold" font-size="9.00">valueObjects</text>
</g>
<g id="clust9" class="cluster">
<title>cluster_src/infrastructure</title>
<path fill="#ffffff" stroke="black" stroke-width="2" d="M356,-16C356,-16 436,-16 436,-16 442,-16 448,-22 448,-28 448,-28 448,-56 448,-56 448,-62 442,-68 436,-68 436,-68 356,-68 356,-68 350,-68 344,-62 344,-56 344,-56 344,-28 344,-28 344,-22 350,-16 356,-16"/>
<text text-anchor="middle" x="396" y="-56.8" font-family="Helvetica,sans-Serif" font-weight="bold" font-size="9.00">infrastructure</text>
</g>
<g id="clust10" class="cluster">
<title>cluster_src/usecases</title>
<path fill="#ffffff" stroke="black" stroke-width="2" d="M169,-114C169,-114 299,-114 299,-114 305,-114 311,-120 311,-126 311,-126 311,-154 311,-154 311,-160 305,-166 299,-166 299,-166 169,-166 169,-166 163,-166 157,-160 157,-154 157,-154 157,-126 157,-126 157,-120 163,-114 169,-114"/>
<text text-anchor="middle" x="234" y="-154.8" font-family="Helvetica,sans-Serif" font-weight="bold" font-size="9.00">usecases</text>
</g>
<!-- src/adapters/library.ts -->
<g id="node1" class="node">
<title>src/adapters/library.ts</title>
<g id="a_node1"><a xlink:href="src/adapters/library.ts" xlink:title="library.ts">
<path fill="#ddfeff" stroke="black" d="M135,-115C135,-115 92,-115 92,-115 89,-115 86,-112 86,-109 86,-109 86,-103 86,-103 86,-100 89,-97 92,-97 92,-97 135,-97 135,-97 138,-97 141,-100 141,-103 141,-103 141,-109 141,-109 141,-112 138,-115 135,-115"/>
<text text-anchor="start" x="94" y="-103.8" font-family="Helvetica,sans-Serif" font-size="9.00">library.ts</text>
</a>
</g>
</g>
<!-- src/infrastructure/validateInput.ts -->
<g id="node2" class="node">
<title>src/infrastructure/validateInput.ts</title>
<g id="a_node2"><a xlink:href="src/infrastructure/validateInput.ts" xlink:title="validateInput.ts">
<path fill="#ddfeff" stroke="black" d="M434,-42C434,-42 358,-42 358,-42 355,-42 352,-39 352,-36 352,-36 352,-30 352,-30 352,-27 355,-24 358,-24 358,-24 434,-24 434,-24 437,-24 440,-27 440,-30 440,-30 440,-36 440,-36 440,-39 437,-42 434,-42"/>
<text text-anchor="start" x="360" y="-30.8" font-family="Helvetica,sans-Serif" font-size="9.00">validateInput.ts</text>
</a>
</g>
</g>
<!-- src/adapters/library.ts&#45;&gt;src/infrastructure/validateInput.ts -->
<g id="edge1" class="edge">
<title>src/adapters/library.ts&#45;&gt;src/infrastructure/validateInput.ts</title>
<path fill="none" stroke="#000000" stroke-width="2" stroke-opacity="0.200000" d="M141.14,-99.07C190.46,-86.23 296.24,-58.7 354.48,-43.55"/>
<polygon fill="#000000" fill-opacity="0.200000" stroke="#000000" stroke-width="2" stroke-opacity="0.200000" points="355.03,-45.57 360.31,-42.03 353.97,-41.51 355.03,-45.57"/>
</g>
<!-- src/usecases/CalculateMaxSlaUseCase.ts -->
<g id="node3" class="node">
<title>src/usecases/CalculateMaxSlaUseCase.ts</title>
<g id="a_node3"><a xlink:href="src/usecases/CalculateMaxSlaUseCase.ts" xlink:title="CalculateMaxSlaUseCase.ts">
<path fill="#ddfeff" stroke="black" d="M297,-140C297,-140 171,-140 171,-140 168,-140 165,-137 165,-134 165,-134 165,-128 165,-128 165,-125 168,-122 171,-122 171,-122 297,-122 297,-122 300,-122 303,-125 303,-128 303,-128 303,-134 303,-134 303,-137 300,-140 297,-140"/>
<text text-anchor="start" x="173" y="-128.8" font-family="Helvetica,sans-Serif" font-size="9.00">CalculateMaxSlaUseCase.ts</text>
</a>
</g>
</g>
<!-- src/adapters/library.ts&#45;&gt;src/usecases/CalculateMaxSlaUseCase.ts -->
<g id="edge2" class="edge">
<title>src/adapters/library.ts&#45;&gt;src/usecases/CalculateMaxSlaUseCase.ts</title>
<path fill="none" stroke="#000000" stroke-width="2" stroke-opacity="0.200000" d="M141.09,-111.61C153.75,-114.28 169.3,-117.56 183.99,-120.66"/>
<polygon fill="#000000" fill-opacity="0.200000" stroke="#000000" stroke-width="2" stroke-opacity="0.200000" points="183.91,-122.79 190.22,-121.97 184.78,-118.68 183.91,-122.79"/>
</g>
<!-- src/domain/errors/InputNotAnArrayError.ts -->
<g id="node11" class="node">
<title>src/domain/errors/InputNotAnArrayError.ts</title>
<g id="a_node11"><a xlink:href="src/domain/errors/InputNotAnArrayError.ts" xlink:title="InputNotAnArrayError.ts">
<path fill="#ddfeff" stroke="black" d="M616.5,-110C616.5,-110 503.5,-110 503.5,-110 500.5,-110 497.5,-107 497.5,-104 497.5,-104 497.5,-98 497.5,-98 497.5,-95 500.5,-92 503.5,-92 503.5,-92 616.5,-92 616.5,-92 619.5,-92 622.5,-95 622.5,-98 622.5,-98 622.5,-104 622.5,-104 622.5,-107 619.5,-110 616.5,-110"/>
<text text-anchor="start" x="505.5" y="-98.8" font-family="Helvetica,sans-Serif" font-size="9.00">InputNotAnArrayError.ts</text>
</a>
</g>
</g>
<!-- src/infrastructure/validateInput.ts&#45;&gt;src/domain/errors/InputNotAnArrayError.ts -->
<g id="edge14" class="edge">
<title>src/infrastructure/validateInput.ts&#45;&gt;src/domain/errors/InputNotAnArrayError.ts</title>
<path fill="none" stroke="#000000" stroke-width="2" stroke-opacity="0.200000" d="M418.51,-42.03C447.68,-54.27 499.79,-76.15 531.69,-89.54"/>
<polygon fill="#000000" fill-opacity="0.200000" stroke="#000000" stroke-width="2" stroke-opacity="0.200000" points="531.05,-91.55 537.4,-91.93 532.68,-87.67 531.05,-91.55"/>
</g>
<!-- src/domain/errors/InputTooBigError.ts -->
<g id="node12" class="node">
<title>src/domain/errors/InputTooBigError.ts</title>
<g id="a_node12"><a xlink:href="src/domain/errors/InputTooBigError.ts" xlink:title="InputTooBigError.ts">
<path fill="#ddfeff" stroke="black" d="M605,-170C605,-170 515,-170 515,-170 512,-170 509,-167 509,-164 509,-164 509,-158 509,-158 509,-155 512,-152 515,-152 515,-152 605,-152 605,-152 608,-152 611,-155 611,-158 611,-158 611,-164 611,-164 611,-167 608,-170 605,-170"/>
<text text-anchor="start" x="517" y="-158.8" font-family="Helvetica,sans-Serif" font-size="9.00">InputTooBigError.ts</text>
</a>
</g>
</g>
<!-- src/infrastructure/validateInput.ts&#45;&gt;src/domain/errors/InputTooBigError.ts -->
<g id="edge15" class="edge">
<title>src/infrastructure/validateInput.ts&#45;&gt;src/domain/errors/InputTooBigError.ts</title>
<path fill="none" stroke="#000000" stroke-width="2" stroke-opacity="0.200000" d="M418.2,-42.11C433.85,-50.01 454.24,-63.02 465,-81 479.95,-105.98 452.94,-124.91 473,-146 480.92,-154.32 491.68,-159.03 502.92,-161.54"/>
<polygon fill="#000000" fill-opacity="0.200000" stroke="#000000" stroke-width="2" stroke-opacity="0.200000" points="502.54,-163.6 508.82,-162.66 503.32,-159.48 502.54,-163.6"/>
</g>
<!-- src/domain/errors/InputTooManyObjectsError.ts -->
<g id="node13" class="node">
<title>src/domain/errors/InputTooManyObjectsError.ts</title>
<g id="a_node13"><a xlink:href="src/domain/errors/InputTooManyObjectsError.ts" xlink:title="InputTooManyObjectsError.ts">
<path fill="#ddfeff" stroke="black" d="M627,-140C627,-140 493,-140 493,-140 490,-140 487,-137 487,-134 487,-134 487,-128 487,-128 487,-125 490,-122 493,-122 493,-122 627,-122 627,-122 630,-122 633,-125 633,-128 633,-128 633,-134 633,-134 633,-137 630,-140 627,-140"/>
<text text-anchor="start" x="495" y="-128.8" font-family="Helvetica,sans-Serif" font-size="9.00">InputTooManyObjectsError.ts</text>
</a>
</g>
</g>
<!-- src/infrastructure/validateInput.ts&#45;&gt;src/domain/errors/InputTooManyObjectsError.ts -->
<g id="edge16" class="edge">
<title>src/infrastructure/validateInput.ts&#45;&gt;src/domain/errors/InputTooManyObjectsError.ts</title>
<path fill="none" stroke="#000000" stroke-width="2" stroke-opacity="0.200000" d="M417.05,-42.1C432.51,-50.15 453.17,-63.35 465,-81 473.88,-94.26 461.43,-105.01 473,-116 475.54,-118.41 478.33,-120.51 481.29,-122.34"/>
<polygon fill="#000000" fill-opacity="0.200000" stroke="#000000" stroke-width="2" stroke-opacity="0.200000" points="480.52,-124.31 486.8,-125.33 482.53,-120.62 480.52,-124.31"/>
</g>
<!-- src/domain/aggregates/ServiceSlaAggregate.ts -->
<g id="node4" class="node">
<title>src/domain/aggregates/ServiceSlaAggregate.ts</title>
<g id="a_node4"><a xlink:href="src/domain/aggregates/ServiceSlaAggregate.ts" xlink:title="ServiceSlaAggregate.ts">
<path fill="#ddfeff" stroke="black" d="M451,-350C451,-350 341,-350 341,-350 338,-350 335,-347 335,-344 335,-344 335,-338 335,-338 335,-335 338,-332 341,-332 341,-332 451,-332 451,-332 454,-332 457,-335 457,-338 457,-338 457,-344 457,-344 457,-347 454,-350 451,-350"/>
<text text-anchor="start" x="343" y="-338.8" font-family="Helvetica,sans-Serif" font-size="9.00">ServiceSlaAggregate.ts</text>
</a>
</g>
</g>
<!-- src/usecases/CalculateMaxSlaUseCase.ts&#45;&gt;src/domain/aggregates/ServiceSlaAggregate.ts -->
<g id="edge17" class="edge">
<title>src/usecases/CalculateMaxSlaUseCase.ts&#45;&gt;src/domain/aggregates/ServiceSlaAggregate.ts</title>
<path fill="none" stroke="#000000" stroke-width="2" stroke-opacity="0.200000" d="M236.31,-140.04C241.18,-170.23 261.02,-268.54 319,-319 323.92,-323.28 329.63,-326.73 335.66,-329.51"/>
<polygon fill="#000000" fill-opacity="0.200000" stroke="#000000" stroke-width="2" stroke-opacity="0.200000" points="334.94,-331.48 341.28,-331.88 336.57,-327.61 334.94,-331.48"/>
</g>
<!-- src/domain/data/serviceSlaData.ts -->
<g id="node10" class="node">
<title>src/domain/data/serviceSlaData.ts</title>
<g id="a_node10"><a xlink:href="src/domain/data/serviceSlaData.ts" xlink:title="serviceSlaData.ts">
<path fill="#ddfeff" stroke="black" d="M437,-425C437,-425 355,-425 355,-425 352,-425 349,-422 349,-419 349,-419 349,-413 349,-413 349,-410 352,-407 355,-407 355,-407 437,-407 437,-407 440,-407 443,-410 443,-413 443,-413 443,-419 443,-419 443,-422 440,-425 437,-425"/>
<text text-anchor="start" x="357" y="-413.8" font-family="Helvetica,sans-Serif" font-size="9.00">serviceSlaData.ts</text>
</a>
</g>
</g>
<!-- src/usecases/CalculateMaxSlaUseCase.ts&#45;&gt;src/domain/data/serviceSlaData.ts -->
<g id="edge18" class="edge">
<title>src/usecases/CalculateMaxSlaUseCase.ts&#45;&gt;src/domain/data/serviceSlaData.ts</title>
<path fill="none" stroke="#000000" stroke-width="2" stroke-opacity="0.200000" d="M235.63,-140.36C238.5,-175.91 253.19,-304.3 319,-379 329.19,-390.56 343.8,-398.86 357.5,-404.64"/>
<polygon fill="#000000" fill-opacity="0.200000" stroke="#000000" stroke-width="2" stroke-opacity="0.200000" points="356.95,-406.68 363.3,-406.96 358.51,-402.78 356.95,-406.68"/>
</g>
<!-- src/domain/valueObjects/ServiceEntries.ts -->
<g id="node22" class="node">
<title>src/domain/valueObjects/ServiceEntries.ts</title>
<g id="a_node22"><a xlink:href="src/domain/valueObjects/ServiceEntries.ts" xlink:title="ServiceEntries.ts">
<path fill="#ddfeff" stroke="black" d="M436,-110C436,-110 356,-110 356,-110 353,-110 350,-107 350,-104 350,-104 350,-98 350,-98 350,-95 353,-92 356,-92 356,-92 436,-92 436,-92 439,-92 442,-95 442,-98 442,-98 442,-104 442,-104 442,-107 439,-110 436,-110"/>
<text text-anchor="start" x="358" y="-98.8" font-family="Helvetica,sans-Serif" font-size="9.00">ServiceEntries.ts</text>
</a>
</g>
</g>
<!-- src/usecases/CalculateMaxSlaUseCase.ts&#45;&gt;src/domain/valueObjects/ServiceEntries.ts -->
<g id="edge19" class="edge">
<title>src/usecases/CalculateMaxSlaUseCase.ts&#45;&gt;src/domain/valueObjects/ServiceEntries.ts</title>
<path fill="none" stroke="#000000" stroke-width="2" stroke-opacity="0.200000" d="M283.01,-122C302.19,-118.4 324.32,-114.25 343.81,-110.6"/>
<polygon fill="#000000" fill-opacity="0.200000" stroke="#000000" stroke-width="2" stroke-opacity="0.200000" points="344.26,-112.65 349.77,-109.48 343.48,-108.52 344.26,-112.65"/>
</g>
<!-- src/domain/valueObjects/ServiceSlas.ts -->
<g id="node23" class="node">
<title>src/domain/valueObjects/ServiceSlas.ts</title>
<g id="a_node23"><a xlink:href="src/domain/valueObjects/ServiceSlas.ts" xlink:title="ServiceSlas.ts">
<path fill="#ddfeff" stroke="black" d="M429.5,-140C429.5,-140 362.5,-140 362.5,-140 359.5,-140 356.5,-137 356.5,-134 356.5,-134 356.5,-128 356.5,-128 356.5,-125 359.5,-122 362.5,-122 362.5,-122 429.5,-122 429.5,-122 432.5,-122 435.5,-125 435.5,-128 435.5,-128 435.5,-134 435.5,-134 435.5,-137 432.5,-140 429.5,-140"/>
<text text-anchor="start" x="364.5" y="-128.8" font-family="Helvetica,sans-Serif" font-size="9.00">ServiceSlas.ts</text>
</a>
</g>
</g>
<!-- src/usecases/CalculateMaxSlaUseCase.ts&#45;&gt;src/domain/valueObjects/ServiceSlas.ts -->
<g id="edge20" class="edge">
<title>src/usecases/CalculateMaxSlaUseCase.ts&#45;&gt;src/domain/valueObjects/ServiceSlas.ts</title>
<path fill="none" stroke="#000000" stroke-width="2" stroke-opacity="0.200000" d="M303.32,-131C319.22,-131 335.76,-131 350.33,-131"/>
<polygon fill="#000000" fill-opacity="0.200000" stroke="#000000" stroke-width="2" stroke-opacity="0.200000" points="350.45,-133.1 356.45,-131 350.45,-128.9 350.45,-133.1"/>
</g>
<!-- src/domain/errors/MissingServiceEntriesError.ts -->
<g id="node5" class="node">
<title>src/domain/errors/MissingServiceEntriesError.ts</title>
<g id="a_node5"><a xlink:href="src/domain/errors/MissingServiceEntriesError.ts" xlink:title="MissingServiceEntriesError.ts">
<path fill="#ddfeff" stroke="black" d="M627,-320C627,-320 493,-320 493,-320 490,-320 487,-317 487,-314 487,-314 487,-308 487,-308 487,-305 490,-302 493,-302 493,-302 627,-302 627,-302 630,-302 633,-305 633,-308 633,-308 633,-314 633,-314 633,-317 630,-320 627,-320"/>
<text text-anchor="start" x="495" y="-308.8" font-family="Helvetica,sans-Serif" font-size="9.00">MissingServiceEntriesError.ts</text>
</a>
</g>
</g>
<!-- src/domain/aggregates/ServiceSlaAggregate.ts&#45;&gt;src/domain/errors/MissingServiceEntriesError.ts -->
<g id="edge3" class="edge">
<title>src/domain/aggregates/ServiceSlaAggregate.ts&#45;&gt;src/domain/errors/MissingServiceEntriesError.ts</title>
<path fill="none" stroke="#000000" stroke-width="2" stroke-opacity="0.200000" d="M441.98,-331.95C452.17,-329.95 462.95,-327.87 473,-326 481.8,-324.36 491.12,-322.68 500.25,-321.07"/>
<polygon fill="#000000" fill-opacity="0.200000" stroke="#000000" stroke-width="2" stroke-opacity="0.200000" points="500.66,-323.13 506.21,-320.02 499.94,-318.99 500.66,-323.13"/>
</g>
<!-- src/domain/errors/ServiceMissingSlaError.ts -->
<g id="node6" class="node">
<title>src/domain/errors/ServiceMissingSlaError.ts</title>
<g id="a_node6"><a xlink:href="src/domain/errors/ServiceMissingSlaError.ts" xlink:title="ServiceMissingSlaError.ts">
<path fill="#ddfeff" stroke="black" d="M618,-350C618,-350 502,-350 502,-350 499,-350 496,-347 496,-344 496,-344 496,-338 496,-338 496,-335 499,-332 502,-332 502,-332 618,-332 618,-332 621,-332 624,-335 624,-338 624,-338 624,-344 624,-344 624,-347 621,-350 618,-350"/>
<text text-anchor="start" x="504" y="-338.8" font-family="Helvetica,sans-Serif" font-size="9.00">ServiceMissingSlaError.ts</text>
</a>
</g>
</g>
<!-- src/domain/aggregates/ServiceSlaAggregate.ts&#45;&gt;src/domain/errors/ServiceMissingSlaError.ts -->
<g id="edge4" class="edge">
<title>src/domain/aggregates/ServiceSlaAggregate.ts&#45;&gt;src/domain/errors/ServiceMissingSlaError.ts</title>
<path fill="none" stroke="#000000" stroke-width="2" stroke-opacity="0.200000" d="M457.32,-341C467.85,-341 478.88,-341 489.63,-341"/>
<polygon fill="#000000" fill-opacity="0.200000" stroke="#000000" stroke-width="2" stroke-opacity="0.200000" points="489.92,-343.1 495.92,-341 489.92,-338.9 489.92,-343.1"/>
</g>
<!-- src/domain/data/aws.json -->
<g id="node7" class="node">
<title>src/domain/data/aws.json</title>
<g id="a_node7"><a xlink:href="src/domain/data/aws.json" xlink:title="aws.json">
<path fill="#ffee44" stroke="black" d="M581.5,-410C581.5,-410 538.5,-410 538.5,-410 535.5,-410 532.5,-407 532.5,-404 532.5,-404 532.5,-398 532.5,-398 532.5,-395 535.5,-392 538.5,-392 538.5,-392 581.5,-392 581.5,-392 584.5,-392 587.5,-395 587.5,-398 587.5,-398 587.5,-404 587.5,-404 587.5,-407 584.5,-410 581.5,-410"/>
<text text-anchor="start" x="540.5" y="-398.8" font-family="Helvetica,sans-Serif" font-size="9.00">aws.json</text>
</a>
</g>
</g>
<!-- src/domain/data/azure.json -->
<g id="node8" class="node">
<title>src/domain/data/azure.json</title>
<g id="a_node8"><a xlink:href="src/domain/data/azure.json" xlink:title="azure.json">
<path fill="#ffee44" stroke="black" d="M585,-440C585,-440 535,-440 535,-440 532,-440 529,-437 529,-434 529,-434 529,-428 529,-428 529,-425 532,-422 535,-422 535,-422 585,-422 585,-422 588,-422 591,-425 591,-428 591,-428 591,-434 591,-434 591,-437 588,-440 585,-440"/>
<text text-anchor="start" x="537" y="-428.8" font-family="Helvetica,sans-Serif" font-size="9.00">azure.json</text>
</a>
</g>
</g>
<!-- src/domain/data/gcp.json -->
<g id="node9" class="node">
<title>src/domain/data/gcp.json</title>
<g id="a_node9"><a xlink:href="src/domain/data/gcp.json" xlink:title="gcp.json">
<path fill="#ffee44" stroke="black" d="M581.5,-470C581.5,-470 538.5,-470 538.5,-470 535.5,-470 532.5,-467 532.5,-464 532.5,-464 532.5,-458 532.5,-458 532.5,-455 535.5,-452 538.5,-452 538.5,-452 581.5,-452 581.5,-452 584.5,-452 587.5,-455 587.5,-458 587.5,-458 587.5,-464 587.5,-464 587.5,-467 584.5,-470 581.5,-470"/>
<text text-anchor="start" x="540.5" y="-458.8" font-family="Helvetica,sans-Serif" font-size="9.00">gcp.json</text>
</a>
</g>
</g>
<!-- src/domain/data/serviceSlaData.ts&#45;&gt;src/domain/data/aws.json -->
<g id="edge5" class="edge">
<title>src/domain/data/serviceSlaData.ts&#45;&gt;src/domain/data/aws.json</title>
<path fill="none" stroke="#000000" stroke-width="2" stroke-opacity="0.200000" d="M443.42,-411.7C469.86,-409.25 502.34,-406.25 526.13,-404.04"/>
<polygon fill="#000000" fill-opacity="0.200000" stroke="#000000" stroke-width="2" stroke-opacity="0.200000" points="526.51,-406.12 532.29,-403.47 526.12,-401.94 526.51,-406.12"/>
</g>
<!-- src/domain/data/serviceSlaData.ts&#45;&gt;src/domain/data/azure.json -->
<g id="edge6" class="edge">
<title>src/domain/data/serviceSlaData.ts&#45;&gt;src/domain/data/azure.json</title>
<path fill="none" stroke="#000000" stroke-width="2" stroke-opacity="0.200000" d="M443.42,-420.3C468.66,-422.63 499.4,-425.48 522.84,-427.65"/>
<polygon fill="#000000" fill-opacity="0.200000" stroke="#000000" stroke-width="2" stroke-opacity="0.200000" points="522.77,-429.75 528.93,-428.22 523.15,-425.57 522.77,-429.75"/>
</g>
<!-- src/domain/data/serviceSlaData.ts&#45;&gt;src/domain/data/gcp.json -->
<g id="edge7" class="edge">
<title>src/domain/data/serviceSlaData.ts&#45;&gt;src/domain/data/gcp.json</title>
<path fill="none" stroke="#000000" stroke-width="2" stroke-opacity="0.200000" d="M416.62,-425.02C431.75,-431.67 453.34,-440.47 473,-446 490.26,-450.86 509.93,-454.43 526.1,-456.86"/>
<polygon fill="#000000" fill-opacity="0.200000" stroke="#000000" stroke-width="2" stroke-opacity="0.200000" points="526.1,-458.99 532.34,-457.78 526.71,-454.83 526.1,-458.99"/>
</g>
<!-- src/domain/errors/InvalidServiceDataError.ts -->
<g id="node14" class="node">
<title>src/domain/errors/InvalidServiceDataError.ts</title>
<g id="a_node14"><a xlink:href="src/domain/errors/InvalidServiceDataError.ts" xlink:title="InvalidServiceDataError.ts">
<path fill="#ddfeff" stroke="black" d="M620.5,-290C620.5,-290 499.5,-290 499.5,-290 496.5,-290 493.5,-287 493.5,-284 493.5,-284 493.5,-278 493.5,-278 493.5,-275 496.5,-272 499.5,-272 499.5,-272 620.5,-272 620.5,-272 623.5,-272 626.5,-275 626.5,-278 626.5,-278 626.5,-284 626.5,-284 626.5,-287 623.5,-290 620.5,-290"/>
<text text-anchor="start" x="501.5" y="-278.8" font-family="Helvetica,sans-Serif" font-size="9.00">InvalidServiceDataError.ts</text>
</a>
</g>
</g>
<!-- src/domain/errors/InvalidServiceInputDataError.ts -->
<g id="node15" class="node">
<title>src/domain/errors/InvalidServiceInputDataError.ts</title>
<g id="a_node15"><a xlink:href="src/domain/errors/InvalidServiceInputDataError.ts" xlink:title="InvalidServiceInputDataError.ts">
<path fill="#ddfeff" stroke="black" d="M633,-200C633,-200 487,-200 487,-200 484,-200 481,-197 481,-194 481,-194 481,-188 481,-188 481,-185 484,-182 487,-182 487,-182 633,-182 633,-182 636,-182 639,-185 639,-188 639,-188 639,-194 639,-194 639,-197 636,-200 633,-200"/>
<text text-anchor="start" x="489" y="-188.8" font-family="Helvetica,sans-Serif" font-size="9.00">InvalidServiceInputDataError.ts</text>
</a>
</g>
</g>
<!-- src/domain/errors/MissingItemsToValidateError.ts -->
<g id="node16" class="node">
<title>src/domain/errors/MissingItemsToValidateError.ts</title>
<g id="a_node16"><a xlink:href="src/domain/errors/MissingItemsToValidateError.ts" xlink:title="MissingItemsToValidateError.ts">
<path fill="#ddfeff" stroke="black" d="M630,-260C630,-260 490,-260 490,-260 487,-260 484,-257 484,-254 484,-254 484,-248 484,-248 484,-245 487,-242 490,-242 490,-242 630,-242 630,-242 633,-242 636,-245 636,-248 636,-248 636,-254 636,-254 636,-257 633,-260 630,-260"/>
<text text-anchor="start" x="492" y="-248.8" font-family="Helvetica,sans-Serif" font-size="9.00">MissingItemsToValidateError.ts</text>
</a>
</g>
</g>
<!-- src/domain/errors/UnknownInputError.ts -->
<g id="node17" class="node">
<title>src/domain/errors/UnknownInputError.ts</title>
<g id="a_node17"><a xlink:href="src/domain/errors/UnknownInputError.ts" xlink:title="UnknownInputError.ts">
<path fill="#ddfeff" stroke="black" d="M612,-230C612,-230 508,-230 508,-230 505,-230 502,-227 502,-224 502,-224 502,-218 502,-218 502,-215 505,-212 508,-212 508,-212 612,-212 612,-212 615,-212 618,-215 618,-218 618,-218 618,-224 618,-224 618,-227 615,-230 612,-230"/>
<text text-anchor="start" x="510" y="-218.8" font-family="Helvetica,sans-Serif" font-size="9.00">UnknownInputError.ts</text>
</a>
</g>
</g>
<!-- src/domain/interfaces/ServiceEntry.ts -->
<g id="node18" class="node">
<title>src/domain/interfaces/ServiceEntry.ts</title>
<g id="a_node18"><a xlink:href="src/domain/interfaces/ServiceEntry.ts" xlink:title="ServiceEntry.ts">
<path fill="#ccffcc" stroke="black" d="M432,-290C432,-290 360,-290 360,-290 357,-290 354,-287 354,-284 354,-284 354,-278 354,-278 354,-275 357,-272 360,-272 360,-272 432,-272 432,-272 435,-272 438,-275 438,-278 438,-278 438,-284 438,-284 438,-287 435,-290 432,-290"/>
<text text-anchor="start" x="362" y="-278.8" font-family="Helvetica,sans-Serif" font-size="9.00">ServiceEntry.ts</text>
</a>
</g>
</g>
<!-- src/domain/interfaces/ServiceSla.ts -->
<g id="node19" class="node">
<title>src/domain/interfaces/ServiceSla.ts</title>
<g id="a_node19"><a xlink:href="src/domain/interfaces/ServiceSla.ts" xlink:title="ServiceSla.ts">
<path fill="#ccffcc" stroke="black" d="M427,-260C427,-260 365,-260 365,-260 362,-260 359,-257 359,-254 359,-254 359,-248 359,-248 359,-245 362,-242 365,-242 365,-242 427,-242 427,-242 430,-242 433,-245 433,-248 433,-248 433,-254 433,-254 433,-257 430,-260 427,-260"/>
<text text-anchor="start" x="367" y="-248.8" font-family="Helvetica,sans-Serif" font-size="9.00">ServiceSla.ts</text>
</a>
</g>
</g>
<!-- src/domain/interfaces/ServiceSlaAggregate.ts -->
<g id="node20" class="node">
<title>src/domain/interfaces/ServiceSlaAggregate.ts</title>
<g id="a_node20"><a xlink:href="src/domain/interfaces/ServiceSlaAggregate.ts" xlink:title="ServiceSlaAggregate.ts">
<path fill="#ccffcc" stroke="black" d="M451,-230C451,-230 341,-230 341,-230 338,-230 335,-227 335,-224 335,-224 335,-218 335,-218 335,-215 338,-212 341,-212 341,-212 451,-212 451,-212 454,-212 457,-215 457,-218 457,-218 457,-224 457,-224 457,-227 454,-230 451,-230"/>
<text text-anchor="start" x="343" y="-218.8" font-family="Helvetica,sans-Serif" font-size="9.00">ServiceSlaAggregate.ts</text>
</a>
</g>
</g>
<!-- src/domain/interfaces/SlaMaxInput.ts -->
<g id="node21" class="node">
<title>src/domain/interfaces/SlaMaxInput.ts</title>
<g id="a_node21"><a xlink:href="src/domain/interfaces/SlaMaxInput.ts" xlink:title="SlaMaxInput.ts">
<path fill="#ccffcc" stroke="black" d="M432,-200C432,-200 360,-200 360,-200 357,-200 354,-197 354,-194 354,-194 354,-188 354,-188 354,-185 357,-182 360,-182 360,-182 432,-182 432,-182 435,-182 438,-185 438,-188 438,-188 438,-194 438,-194 438,-197 435,-200 432,-200"/>
<text text-anchor="start" x="362" y="-188.8" font-family="Helvetica,sans-Serif" font-size="9.00">SlaMaxInput.ts</text>
</a>
</g>
</g>
<!-- src/domain/valueObjects/ServiceEntries.ts&#45;&gt;src/domain/errors/InvalidServiceInputDataError.ts -->
<g id="edge8" class="edge">
<title>src/domain/valueObjects/ServiceEntries.ts&#45;&gt;src/domain/errors/InvalidServiceInputDataError.ts</title>
<path fill="none" stroke="#000000" stroke-width="2" stroke-opacity="0.200000" d="M442.06,-102.98C450.71,-105.38 458.95,-109.41 465,-116 483.2,-135.81 454.36,-156.6 473,-176 473.91,-176.94 474.85,-177.84 475.82,-178.69"/>
<polygon fill="#000000" fill-opacity="0.200000" stroke="#000000" stroke-width="2" stroke-opacity="0.200000" points="474.91,-180.63 480.96,-182.59 477.45,-177.29 474.91,-180.63"/>
</g>
<!-- src/domain/valueObjects/ServiceEntries.ts&#45;&gt;src/domain/errors/MissingItemsToValidateError.ts -->
<g id="edge9" class="edge">
<title>src/domain/valueObjects/ServiceEntries.ts&#45;&gt;src/domain/errors/MissingItemsToValidateError.ts</title>
<path fill="none" stroke="#000000" stroke-width="2" stroke-opacity="0.200000" d="M442.05,-102.58C450.8,-104.99 459.09,-109.12 465,-116 482.42,-136.27 455.13,-216.13 473,-236 474.77,-237.97 476.69,-239.73 478.75,-241.32"/>
<polygon fill="#000000" fill-opacity="0.200000" stroke="#000000" stroke-width="2" stroke-opacity="0.200000" points="477.61,-243.09 483.76,-244.7 479.96,-239.61 477.61,-243.09"/>
</g>
<!-- src/domain/valueObjects/ServiceEntries.ts&#45;&gt;src/domain/errors/UnknownInputError.ts -->
<g id="edge10" class="edge">
<title>src/domain/valueObjects/ServiceEntries.ts&#45;&gt;src/domain/errors/UnknownInputError.ts</title>
<path fill="none" stroke="#000000" stroke-width="2" stroke-opacity="0.200000" d="M442.28,-102.78C450.92,-105.19 459.09,-109.28 465,-116 478.26,-131.08 459.41,-191.22 473,-206 479.23,-212.77 487.34,-217.18 496.08,-219.96"/>
<polygon fill="#000000" fill-opacity="0.200000" stroke="#000000" stroke-width="2" stroke-opacity="0.200000" points="495.57,-221.99 501.91,-221.55 496.68,-217.94 495.57,-221.99"/>
</g>
<!-- src/domain/valueObjects/ServiceSlas.ts&#45;&gt;src/domain/errors/InvalidServiceDataError.ts -->
<g id="edge11" class="edge">
<title>src/domain/valueObjects/ServiceSlas.ts&#45;&gt;src/domain/errors/InvalidServiceDataError.ts</title>
<path fill="none" stroke="#000000" stroke-width="2" stroke-opacity="0.200000" d="M424.34,-140.02C438.93,-146.32 455.74,-156.28 465,-171 476.28,-188.93 458.7,-250.37 473,-266 477.14,-270.53 482.13,-274 487.59,-276.63"/>
<polygon fill="#000000" fill-opacity="0.200000" stroke="#000000" stroke-width="2" stroke-opacity="0.200000" points="486.84,-278.6 493.19,-279 488.47,-274.73 486.84,-278.6"/>
</g>
<!-- src/domain/valueObjects/ServiceSlas.ts&#45;&gt;src/domain/errors/MissingItemsToValidateError.ts -->
<g id="edge12" class="edge">
<title>src/domain/valueObjects/ServiceSlas.ts&#45;&gt;src/domain/errors/MissingItemsToValidateError.ts</title>
<path fill="none" stroke="#000000" stroke-width="2" stroke-opacity="0.200000" d="M423.79,-140.01C438.38,-146.34 455.38,-156.34 465,-171 480.97,-195.33 452.94,-214.91 473,-236 474.82,-237.92 476.79,-239.64 478.89,-241.19"/>
<polygon fill="#000000" fill-opacity="0.200000" stroke="#000000" stroke-width="2" stroke-opacity="0.200000" points="477.81,-242.99 483.98,-244.5 480.09,-239.47 477.81,-242.99"/>
</g>
<!-- src/index.ts -->
<g id="node24" class="node">
<title>src/index.ts</title>
<g id="a_node24"><a xlink:href="src/index.ts" xlink:title="index.ts">
<path fill="#ddfeff" stroke="black" d="M64,-115C64,-115 22,-115 22,-115 19,-115 16,-112 16,-109 16,-109 16,-103 16,-103 16,-100 19,-97 22,-97 22,-97 64,-97 64,-97 67,-97 70,-100 70,-103 70,-103 70,-109 70,-109 70,-112 67,-115 64,-115"/>
<text text-anchor="start" x="24.5" y="-103.8" font-family="Helvetica,sans-Serif" font-size="9.00">index.ts</text>
</a>
</g>
</g>
<!-- src/index.ts&#45;&gt;src/adapters/library.ts -->
<g id="edge13" class="edge">
<title>src/index.ts&#45;&gt;src/adapters/library.ts</title>
<path fill="none" stroke="#000000" stroke-width="2" stroke-opacity="0.200000" d="M70.29,-106C73.33,-106 76.47,-106 79.59,-106"/>
<polygon fill="#000000" fill-opacity="0.200000" stroke="#000000" stroke-width="2" stroke-opacity="0.200000" points="79.94,-108.1 85.94,-106 79.94,-103.9 79.94,-108.1"/>
</g>
</g>
</svg>
