<?xml version="1.0" encoding="UTF-8" standalone="no"?>
<!DOCTYPE svg PUBLIC "-//W3C//DTD SVG 1.1//EN" "http://www.w3.org/Graphics/SVG/1.1/DTD/svg11.dtd">
<!-- Generated by graphviz version 2.50.0 (0)
 -->
<!-- Title: dependency&#45;cruiser output Pages: 1 -->
<svg width="679pt" height="564pt" viewBox="0.00 0.00 679.00 564.00" xmlns="http://www.w3.org/2000/svg" xmlns:xlink="http://www.w3.org/1999/xlink">
    <g id="graph0" class="graph" transform="scale(1 1) rotate(0) translate(4 560)">
        <title>dependency&#45;cruiser output</title>
        <polygon fill="white" stroke="transparent" points="-4,4 -4,-560 675,-560 675,4 -4,4" />
        <g id="clust1" class="cluster">
            <title>cluster_src</title>
            <path fill="#ffffff" stroke="black" stroke-width="2" d="M20,-8C20,-8 622,-8 622,-8 628,-8 634,-14 634,-20 634,-20 634,-536 634,-536 634,-542 628,-548 622,-548 622,-548 20,-548 20,-548 14,-548 8,-542 8,-536 8,-536 8,-20 8,-20 8,-14 14,-8 20,-8" />
            <text text-anchor="middle" x="321" y="-536.8" font-family="Helvetica,sans-Serif" font-weight="bold" font-size="9.00">src</text>
        </g>
        <g id="clust2" class="cluster">
            <title>cluster_src/adapters</title>
            <path fill="#ffffff" stroke="black" stroke-width="2" d="M90,-89C90,-89 136,-89 136,-89 142,-89 148,-95 148,-101 148,-101 148,-129 148,-129 148,-135 142,-141 136,-141 136,-141 90,-141 90,-141 84,-141 78,-135 78,-129 78,-129 78,-101 78,-101 78,-95 84,-89 90,-89" />
            <text text-anchor="middle" x="113" y="-129.8" font-family="Helvetica,sans-Serif" font-weight="bold" font-size="9.00">adapters</text>
        </g>
        <g id="clust3" class="cluster">
            <title>cluster_src/domain</title>
            <path fill="#ffffff" stroke="black" stroke-width="2" d="M331,-76C331,-76 643,-76 643,-76 649,-76 655,-82 655,-88 655,-88 655,-510 655,-510 655,-516 649,-522 643,-522 643,-522 331,-522 331,-522 325,-522 319,-516 319,-510 319,-510 319,-88 319,-88 319,-82 325,-76 331,-76" />
            <text text-anchor="middle" x="487" y="-510.8" font-family="Helvetica,sans-Serif" font-weight="bold" font-size="9.00">domain</text>
        </g>
        <g id="clust5" class="cluster">
            <title>cluster_src/domain/data</title>
            <path fill="#ffffff" stroke="black" stroke-width="2" d="M346.5,-384C346.5,-384 564,-384 564,-384 570,-384 576,-390 576,-396 576,-396 576,-484 576,-484 576,-490 570,-496 564,-496 564,-496 346.5,-496 346.5,-496 340.5,-496 334.5,-490 334.5,-484 334.5,-484 334.5,-396 334.5,-396 334.5,-390 340.5,-384 346.5,-384" />
            <text text-anchor="middle" x="455.25" y="-484.8" font-family="Helvetica,sans-Serif" font-weight="bold" font-size="9.00">data</text>
        </g>
        <g id="clust4" class="cluster">
            <title>cluster_src/domain/aggregates</title>
            <path fill="#ffffff" stroke="black" stroke-width="2" d="M334,-324C334,-324 439,-324 439,-324 445,-324 451,-330 451,-336 451,-336 451,-364 451,-364 451,-370 445,-376 439,-376 439,-376 334,-376 334,-376 328,-376 322,-370 322,-364 322,-364 322,-336 322,-336 322,-330 328,-324 334,-324" />
            <text text-anchor="middle" x="386.5" y="-364.8" font-family="Helvetica,sans-Serif" font-weight="bold" font-size="9.00">aggregates</text>
        </g>
        <g id="clust6" class="cluster">
            <title>cluster_src/domain/errors</title>
            <path fill="#ffffff" stroke="black" stroke-width="2" d="M471,-84C471,-84 606,-84 606,-84 612,-84 618,-90 618,-96 618,-96 618,-364 618,-364 618,-370 612,-376 606,-376 606,-376 471,-376 471,-376 465,-376 459,-370 459,-364 459,-364 459,-96 459,-96 459,-90 465,-84 471,-84" />
            <text text-anchor="middle" x="538.5" y="-364.8" font-family="Helvetica,sans-Serif" font-weight="bold" font-size="9.00">errors</text>
        </g>
        <g id="clust7" class="cluster">
            <title>cluster_src/domain/interfaces</title>
            <path fill="#ffffff" stroke="black" stroke-width="2" d="M334,-174C334,-174 439,-174 439,-174 445,-174 451,-180 451,-186 451,-186 451,-304 451,-304 451,-310 445,-316 439,-316 439,-316 334,-316 334,-316 328,-316 322,-310 322,-304 322,-304 322,-186 322,-186 322,-180 328,-174 334,-174" />
            <text text-anchor="middle" x="386.5" y="-304.8" font-family="Helvetica,sans-Serif" font-weight="bold" font-size="9.00">interfaces</text>
        </g>
        <g id="clust8" class="cluster">
            <title>cluster_src/domain/valueObjects</title>
            <path fill="#ffffff" stroke="black" stroke-width="2" d="M348,-84C348,-84 425,-84 425,-84 431,-84 437,-90 437,-96 437,-96 437,-154 437,-154 437,-160 431,-166 425,-166 425,-166 348,-166 348,-166 342,-166 336,-160 336,-154 336,-154 336,-96 336,-96 336,-90 342,-84 348,-84" />
            <text text-anchor="middle" x="386.5" y="-154.8" font-family="Helvetica,sans-Serif" font-weight="bold" font-size="9.00">valueObjects</text>
        </g>
        <g id="clust10" class="cluster">
            <title>cluster_src/usecases</title>
            <path fill="#ffffff" stroke="black" stroke-width="2" d="M168,-114C168,-114 294,-114 294,-114 300,-114 306,-120 306,-126 306,-126 306,-154 306,-154 306,-160 300,-166 294,-166 294,-166 168,-166 168,-166 162,-166 156,-160 156,-154 156,-154 156,-126 156,-126 156,-120 162,-114 168,-114" />
            <text text-anchor="middle" x="231" y="-154.8" font-family="Helvetica,sans-Serif" font-weight="bold" font-size="9.00">usecases</text>
        </g>
        <g id="clust9" class="cluster">
            <title>cluster_src/infrastructure</title>
            <path fill="#ffffff" stroke="black" stroke-width="2" d="M351.5,-16C351.5,-16 421.5,-16 421.5,-16 427.5,-16 433.5,-22 433.5,-28 433.5,-28 433.5,-56 433.5,-56 433.5,-62 427.5,-68 421.5,-68 421.5,-68 351.5,-68 351.5,-68 345.5,-68 339.5,-62 339.5,-56 339.5,-56 339.5,-28 339.5,-28 339.5,-22 345.5,-16 351.5,-16" />
            <text text-anchor="middle" x="386.5" y="-56.8" font-family="Helvetica,sans-Serif" font-weight="bold" font-size="9.00">infrastructure</text>
        </g>
        <!-- src/adapters/library.ts -->
        <g id="node1" class="node">
            <title>src/adapters/library.ts</title>
            <g id="a_node1">
                <a xlink:href="src/adapters/library.ts" xlink:title="library.ts">
                    <path fill="#ddfeff" stroke="black" d="M134,-115C134,-115 92,-115 92,-115 89,-115 86,-112 86,-109 86,-109 86,-103 86,-103 86,-100 89,-97 92,-97 92,-97 134,-97 134,-97 137,-97 140,-100 140,-103 140,-103 140,-109 140,-109 140,-112 137,-115 134,-115" />
                    <text text-anchor="start" x="95.5" y="-103.8" font-family="Helvetica,sans-Serif" font-size="9.00">library.ts</text>
                </a>
            </g>
        </g>
        <!-- src/infrastructure/validateInput.ts -->
        <g id="node2" class="node">
            <title>src/infrastructure/validateInput.ts</title>
            <g id="a_node2">
                <a xlink:href="src/infrastructure/validateInput.ts" xlink:title="validateInput.ts">
                    <path fill="#ddfeff" stroke="black" d="M434,-42C434,-42 358,-42 358,-42 355,-42 352,-39 352,-36 352,-36 352,-30 352,-30 352,-27 355,-24 358,-24 358,-24 434,-24 434,-24 437,-24 440,-27 440,-30 440,-30 440,-36 440,-36 440,-39 437,-42 434,-42" />
                    <text text-anchor="start" x="360" y="-30.8" font-family="Helvetica,sans-Serif" font-size="9.00">validateInput.ts</text>
                </a>
            </g>
        </g>
        <!-- src/adapters/library.ts&#45;&gt;src/infrastructure/validateInput.ts -->
        <g id="edge1" class="edge">
            <title>src/adapters/library.ts&#45;&gt;src/infrastructure/validateInput.ts</title>
            <path fill="none" stroke="#000000" stroke-width="2" stroke-opacity="0.200000" d="M140.03,-99C187.8,-86.16 289.69,-58.76 346.02,-43.61" />
            <polygon fill="#000000" fill-opacity="0.200000" stroke="#000000" stroke-width="2" stroke-opacity="0.200000" points="346.75,-45.59 351.99,-42.01 345.65,-41.54 346.75,-45.59" />
        </g>
        <!-- src/usecases/CalculateMaxSlaUseCase.ts -->
        <g id="node3" class="node">
            <title>src/usecases/CalculateMaxSlaUseCase.ts</title>
            <g id="a_node3">
                <a xlink:href="src/usecases/CalculateMaxSlaUseCase.ts" xlink:title="CalculateMaxSlaUseCase.ts">
                    <path fill="#ddfeff" stroke="black" d="M292,-140C292,-140 170,-140 170,-140 167,-140 164,-137 164,-134 164,-134 164,-128 164,-128 164,-125 167,-122 170,-122 170,-122 292,-122 292,-122 295,-122 298,-125 298,-128 298,-128 298,-134 298,-134 298,-137 295,-140 292,-140" />
                    <text text-anchor="start" x="172" y="-128.8" font-family="Helvetica,sans-Serif" font-size="9.00">CalculateMaxSlaUseCase.ts</text>
                </a>
            </g>
        </g>
        <!-- src/adapters/library.ts&#45;&gt;src/usecases/CalculateMaxSlaUseCase.ts -->
        <g id="edge2" class="edge">
            <title>src/adapters/library.ts&#45;&gt;src/usecases/CalculateMaxSlaUseCase.ts</title>
            <path fill="none" stroke="#000000" stroke-width="2" stroke-opacity="0.200000" d="M140.03,-111.61C152.42,-114.28 167.65,-117.56 182.02,-120.66" />
            <polygon fill="#000000" fill-opacity="0.200000" stroke="#000000" stroke-width="2" stroke-opacity="0.200000" points="181.81,-122.76 188.12,-121.97 182.7,-118.66 181.81,-122.76" />
        </g>
        <!-- src/domain/errors/InputNotAnArrayError.ts -->
        <g id="node11" class="node">
            <title>src/domain/errors/InputNotAnArrayError.ts</title>
            <g id="a_node11">
                <a xlink:href="src/domain/errors/InputNotAnArrayError.ts" xlink:title="InputNotAnArrayError.ts">
                    <path fill="#ddfeff" stroke="black" d="M589,-110C589,-110 488,-110 488,-110 485,-110 482,-107 482,-104 482,-104 482,-98 482,-98 482,-95 485,-92 488,-92 488,-92 589,-92 589,-92 592,-92 595,-95 595,-98 595,-98 595,-104 595,-104 595,-107 592,-110 589,-110" />
                    <text text-anchor="start" x="490" y="-98.8" font-family="Helvetica,sans-Serif" font-size="9.00">InputNotAnArrayError.ts</text>
                </a>
            </g>
        </g>
        <!-- src/infrastructure/validateInput.ts&#45;&gt;src/domain/errors/InputNotAnArrayError.ts -->
        <g id="edge14" class="edge">
            <title>src/infrastructure/validateInput.ts&#45;&gt;src/domain/errors/InputNotAnArrayError.ts</title>
            <path fill="none" stroke="#000000" stroke-width="2" stroke-opacity="0.200000" d="M407.42,-42.03C434.32,-54.22 482.28,-75.96 511.84,-89.37" />
            <polygon fill="#000000" fill-opacity="0.200000" stroke="#000000" stroke-width="2" stroke-opacity="0.200000" points="511.17,-91.37 517.5,-91.93 512.9,-87.54 511.17,-91.37" />
        </g>
        <!-- src/domain/errors/InputTooBigError.ts -->
        <g id="node12" class="node">
            <title>src/domain/errors/InputTooBigError.ts</title>
            <g id="a_node12">
                <a xlink:href="src/domain/errors/InputTooBigError.ts" xlink:title="InputTooBigError.ts">
                    <path fill="#ddfeff" stroke="black" d="M580,-170C580,-170 497,-170 497,-170 494,-170 491,-167 491,-164 491,-164 491,-158 491,-158 491,-155 494,-152 497,-152 497,-152 580,-152 580,-152 583,-152 586,-155 586,-158 586,-158 586,-164 586,-164 586,-167 583,-170 580,-170" />
                    <text text-anchor="start" x="499" y="-158.8" font-family="Helvetica,sans-Serif" font-size="9.00">InputTooBigError.ts</text>
                </a>
            </g>
        </g>
        <!-- src/infrastructure/validateInput.ts&#45;&gt;src/domain/errors/InputTooBigError.ts -->
        <g id="edge15" class="edge">
            <title>src/infrastructure/validateInput.ts&#45;&gt;src/domain/errors/InputTooBigError.ts</title>
            <path fill="none" stroke="#000000" stroke-width="2" stroke-opacity="0.200000" d="M406.71,-42.12C421.42,-50.19 440.85,-63.4 451,-81 465.54,-106.22 439.11,-124.75 459,-146 465.83,-153.3 475.03,-157.68 484.73,-160.2" />
            <polygon fill="#000000" fill-opacity="0.200000" stroke="#000000" stroke-width="2" stroke-opacity="0.200000" points="484.51,-162.3 490.82,-161.54 485.41,-158.2 484.51,-162.3" />
        </g>
        <!-- src/domain/errors/InputTooManyObjectsError.ts -->
        <g id="node13" class="node">
            <title>src/domain/errors/InputTooManyObjectsError.ts</title>
            <g id="a_node13">
                <a xlink:href="src/domain/errors/InputTooManyObjectsError.ts" xlink:title="InputTooManyObjectsError.ts">
                    <path fill="#ddfeff" stroke="black" d="M599.5,-140C599.5,-140 477.5,-140 477.5,-140 474.5,-140 471.5,-137 471.5,-134 471.5,-134 471.5,-128 471.5,-128 471.5,-125 474.5,-122 477.5,-122 477.5,-122 599.5,-122 599.5,-122 602.5,-122 605.5,-125 605.5,-128 605.5,-128 605.5,-134 605.5,-134 605.5,-137 602.5,-140 599.5,-140" />
                    <text text-anchor="start" x="479.5" y="-128.8" font-family="Helvetica,sans-Serif" font-size="9.00">InputTooManyObjectsError.ts</text>
                </a>
            </g>
        </g>
        <!-- src/infrastructure/validateInput.ts&#45;&gt;src/domain/errors/InputTooManyObjectsError.ts -->
        <g id="edge16" class="edge">
            <title>src/infrastructure/validateInput.ts&#45;&gt;src/domain/errors/InputTooManyObjectsError.ts</title>
            <path fill="none" stroke="#000000" stroke-width="2" stroke-opacity="0.200000" d="M405.65,-42.09C420.14,-50.29 439.82,-63.71 451,-81 459.67,-94.4 447.52,-104.92 459,-116 461.13,-118.06 463.46,-119.88 465.93,-121.49" />
            <polygon fill="#000000" fill-opacity="0.200000" stroke="#000000" stroke-width="2" stroke-opacity="0.200000" points="464.93,-123.34 471.19,-124.49 467.02,-119.69 464.93,-123.34" />
        </g>
        <!-- src/domain/aggregates/ServiceSlaAggregate.ts -->
        <g id="node4" class="node">
            <title>src/domain/aggregates/ServiceSlaAggregate.ts</title>
            <g id="a_node4">
                <a xlink:href="src/domain/aggregates/ServiceSlaAggregate.ts" xlink:title="ServiceSlaAggregate.ts">
                    <path fill="#ddfeff" stroke="black" d="M437,-350C437,-350 336,-350 336,-350 333,-350 330,-347 330,-344 330,-344 330,-338 330,-338 330,-335 333,-332 336,-332 336,-332 437,-332 437,-332 440,-332 443,-335 443,-338 443,-338 443,-344 443,-344 443,-347 440,-350 437,-350" />
                    <text text-anchor="start" x="338" y="-338.8" font-family="Helvetica,sans-Serif" font-size="9.00">ServiceSlaAggregate.ts</text>
                </a>
            </g>
        </g>
        <!-- src/usecases/CalculateMaxSlaUseCase.ts&#45;&gt;src/domain/aggregates/ServiceSlaAggregate.ts -->
        <g id="edge17" class="edge">
            <title>src/usecases/CalculateMaxSlaUseCase.ts&#45;&gt;src/domain/aggregates/ServiceSlaAggregate.ts</title>
            <path fill="none" stroke="#000000" stroke-width="2" stroke-opacity="0.200000" d="M233.31,-140.42C238.05,-170.97 257.17,-268.24 314,-319 318.82,-323.31 324.47,-326.77 330.44,-329.55" />
            <polygon fill="#000000" fill-opacity="0.200000" stroke="#000000" stroke-width="2" stroke-opacity="0.200000" points="329.66,-331.5 336,-331.93 331.31,-327.64 329.66,-331.5" />
        </g>
        <!-- src/domain/data/serviceSlaData.ts -->
        <g id="node10" class="node">
            <title>src/domain/data/serviceSlaData.ts</title>
            <g id="a_node10">
                <a xlink:href="src/domain/data/serviceSlaData.ts" xlink:title="serviceSlaData.ts">
                    <path fill="#ddfeff" stroke="black" d="M424.5,-425C424.5,-425 348.5,-425 348.5,-425 345.5,-425 342.5,-422 342.5,-419 342.5,-419 342.5,-413 342.5,-413 342.5,-410 345.5,-407 348.5,-407 348.5,-407 424.5,-407 424.5,-407 427.5,-407 430.5,-410 430.5,-413 430.5,-413 430.5,-419 430.5,-419 430.5,-422 427.5,-425 424.5,-425" />
                    <text text-anchor="start" x="350.5" y="-413.8" font-family="Helvetica,sans-Serif" font-size="9.00">serviceSlaData.ts</text>
                </a>
            </g>
        </g>
        <!-- src/usecases/CalculateMaxSlaUseCase.ts&#45;&gt;src/domain/data/serviceSlaData.ts -->
        <g id="edge18" class="edge">
            <title>src/usecases/CalculateMaxSlaUseCase.ts&#45;&gt;src/domain/data/serviceSlaData.ts</title>
            <path fill="none" stroke="#000000" stroke-width="2" stroke-opacity="0.200000" d="M232.6,-140.31C235.36,-175.67 249.54,-303.45 314,-379 323.68,-390.35 337.72,-398.67 350.8,-404.51" />
            <polygon fill="#000000" fill-opacity="0.200000" stroke="#000000" stroke-width="2" stroke-opacity="0.200000" points="349.99,-406.45 356.33,-406.86 351.64,-402.58 349.99,-406.45" />
        </g>
        <!-- src/domain/valueObjects/ServiceEntries.ts -->
        <g id="node22" class="node">
            <title>src/domain/valueObjects/ServiceEntries.ts</title>
            <g id="a_node22">
                <a xlink:href="src/domain/valueObjects/ServiceEntries.ts" xlink:title="ServiceEntries.ts">
                    <path fill="#ddfeff" stroke="black" d="M423,-110C423,-110 350,-110 350,-110 347,-110 344,-107 344,-104 344,-104 344,-98 344,-98 344,-95 347,-92 350,-92 350,-92 423,-92 423,-92 426,-92 429,-95 429,-98 429,-98 429,-104 429,-104 429,-107 426,-110 423,-110" />
                    <text text-anchor="start" x="352" y="-98.8" font-family="Helvetica,sans-Serif" font-size="9.00">ServiceEntries.ts</text>
                </a>
            </g>
        </g>
        <!-- src/usecases/CalculateMaxSlaUseCase.ts&#45;&gt;src/domain/valueObjects/ServiceEntries.ts -->
        <g id="edge19" class="edge">
            <title>src/usecases/CalculateMaxSlaUseCase.ts&#45;&gt;src/domain/valueObjects/ServiceEntries.ts</title>
            <path fill="none" stroke="#000000" stroke-width="2" stroke-opacity="0.200000" d="M278.06,-122C296.86,-118.32 318.61,-114.07 337.6,-110.36" />
            <polygon fill="#000000" fill-opacity="0.200000" stroke="#000000" stroke-width="2" stroke-opacity="0.200000" points="338.44,-112.34 343.92,-109.13 337.63,-108.22 338.44,-112.34" />
        </g>
        <!-- src/domain/valueObjects/ServiceSlas.ts -->
        <g id="node23" class="node">
            <title>src/domain/valueObjects/ServiceSlas.ts</title>
            <g id="a_node23">
                <a xlink:href="src/domain/valueObjects/ServiceSlas.ts" xlink:title="ServiceSlas.ts">
                    <path fill="#ddfeff" stroke="black" d="M417.5,-140C417.5,-140 355.5,-140 355.5,-140 352.5,-140 349.5,-137 349.5,-134 349.5,-134 349.5,-128 349.5,-128 349.5,-125 352.5,-122 355.5,-122 355.5,-122 417.5,-122 417.5,-122 420.5,-122 423.5,-125 423.5,-128 423.5,-128 423.5,-134 423.5,-134 423.5,-137 420.5,-140 417.5,-140" />
                    <text text-anchor="start" x="357.5" y="-128.8" font-family="Helvetica,sans-Serif" font-size="9.00">ServiceSlas.ts</text>
                </a>
            </g>
        </g>
        <!-- src/usecases/CalculateMaxSlaUseCase.ts&#45;&gt;src/domain/valueObjects/ServiceSlas.ts -->
        <g id="edge20" class="edge">
            <title>src/usecases/CalculateMaxSlaUseCase.ts&#45;&gt;src/domain/valueObjects/ServiceSlas.ts</title>
            <path fill="none" stroke="#000000" stroke-width="2" stroke-opacity="0.200000" d="M298.43,-131C313.61,-131 329.34,-131 343.18,-131" />
            <polygon fill="#000000" fill-opacity="0.200000" stroke="#000000" stroke-width="2" stroke-opacity="0.200000" points="343.4,-133.1 349.4,-131 343.4,-128.9 343.4,-133.1" />
        </g>
        <!-- src/domain/errors/MissingServiceEntriesError.ts -->
        <g id="node5" class="node">
            <title>src/domain/errors/MissingServiceEntriesError.ts</title>
            <g id="a_node5">
                <a xlink:href="src/domain/errors/MissingServiceEntriesError.ts" xlink:title="MissingServiceEntriesError.ts">
                    <path fill="#ddfeff" stroke="black" d="M601,-320C601,-320 476,-320 476,-320 473,-320 470,-317 470,-314 470,-314 470,-308 470,-308 470,-305 473,-302 476,-302 476,-302 601,-302 601,-302 604,-302 607,-305 607,-308 607,-308 607,-314 607,-314 607,-317 604,-320 601,-320" />
                    <text text-anchor="start" x="478" y="-308.8" font-family="Helvetica,sans-Serif" font-size="9.00">MissingServiceEntriesError.ts</text>
                </a>
            </g>
        </g>
        <!-- src/domain/aggregates/ServiceSlaAggregate.ts&#45;&gt;src/domain/errors/MissingServiceEntriesError.ts -->
        <g id="edge3" class="edge">
            <title>src/domain/aggregates/ServiceSlaAggregate.ts&#45;&gt;src/domain/errors/MissingServiceEntriesError.ts</title>
            <path fill="none" stroke="#000000" stroke-width="2" stroke-opacity="0.200000" d="M429.82,-331.99C439.41,-329.99 449.55,-327.89 459,-326 466.81,-324.44 475.06,-322.82 483.16,-321.25" />
            <polygon fill="#000000" fill-opacity="0.200000" stroke="#000000" stroke-width="2" stroke-opacity="0.200000" points="483.82,-323.26 489.32,-320.07 483.03,-319.14 483.82,-323.26" />
        </g>
        <!-- src/domain/errors/ServiceMissingSlaError.ts -->
        <g id="node6" class="node">
            <title>src/domain/errors/ServiceMissingSlaError.ts</title>
            <g id="a_node6">
                <a xlink:href="src/domain/errors/ServiceMissingSlaError.ts" xlink:title="ServiceMissingSlaError.ts">
                    <path fill="#ddfeff" stroke="black" d="M593.5,-350C593.5,-350 483.5,-350 483.5,-350 480.5,-350 477.5,-347 477.5,-344 477.5,-344 477.5,-338 477.5,-338 477.5,-335 480.5,-332 483.5,-332 483.5,-332 593.5,-332 593.5,-332 596.5,-332 599.5,-335 599.5,-338 599.5,-338 599.5,-344 599.5,-344 599.5,-347 596.5,-350 593.5,-350" />
                    <text text-anchor="start" x="485.5" y="-338.8" font-family="Helvetica,sans-Serif" font-size="9.00">ServiceMissingSlaError.ts</text>
                </a>
            </g>
        </g>
        <!-- src/domain/aggregates/ServiceSlaAggregate.ts&#45;&gt;src/domain/errors/ServiceMissingSlaError.ts -->
        <g id="edge4" class="edge">
            <title>src/domain/aggregates/ServiceSlaAggregate.ts&#45;&gt;src/domain/errors/ServiceMissingSlaError.ts</title>
            <path fill="none" stroke="#000000" stroke-width="2" stroke-opacity="0.200000" d="M443.35,-341C452.44,-341 461.93,-341 471.24,-341" />
            <polygon fill="#000000" fill-opacity="0.200000" stroke="#000000" stroke-width="2" stroke-opacity="0.200000" points="471.32,-343.1 477.32,-341 471.32,-338.9 471.32,-343.1" />
        </g>
        <!-- src/domain/data/aws.json -->
        <g id="node7" class="node">
            <title>src/domain/data/aws.json</title>
            <g id="a_node7">
                <a xlink:href="src/domain/data/aws.json" xlink:title="aws.json">
                    <path fill="#ffee44" stroke="black" d="M559.5,-410C559.5,-410 517.5,-410 517.5,-410 514.5,-410 511.5,-407 511.5,-404 511.5,-404 511.5,-398 511.5,-398 511.5,-395 514.5,-392 517.5,-392 517.5,-392 559.5,-392 559.5,-392 562.5,-392 565.5,-395 565.5,-398 565.5,-398 565.5,-404 565.5,-404 565.5,-407 562.5,-410 559.5,-410" />
                    <text text-anchor="start" x="520" y="-398.8" font-family="Helvetica,sans-Serif" font-size="9.00">aws.json</text>
                </a>
            </g>
        </g>
        <!-- src/domain/data/azure.json -->
        <g id="node8" class="node">
            <title>src/domain/data/azure.json</title>
            <g id="a_node8">
                <a xlink:href="src/domain/data/azure.json" xlink:title="azure.json">
                    <path fill="#ffee44" stroke="black" d="M562,-440C562,-440 515,-440 515,-440 512,-440 509,-437 509,-434 509,-434 509,-428 509,-428 509,-425 512,-422 515,-422 515,-422 562,-422 562,-422 565,-422 568,-425 568,-428 568,-428 568,-434 568,-434 568,-437 565,-440 562,-440" />
                    <text text-anchor="start" x="517" y="-428.8" font-family="Helvetica,sans-Serif" font-size="9.00">azure.json</text>
                </a>
            </g>
        </g>
        <!-- src/domain/data/gcp.json -->
        <g id="node9" class="node">
            <title>src/domain/data/gcp.json</title>
            <g id="a_node9">
                <a xlink:href="src/domain/data/gcp.json" xlink:title="gcp.json">
                    <path fill="#ffee44" stroke="black" d="M559.5,-470C559.5,-470 517.5,-470 517.5,-470 514.5,-470 511.5,-467 511.5,-464 511.5,-464 511.5,-458 511.5,-458 511.5,-455 514.5,-452 517.5,-452 517.5,-452 559.5,-452 559.5,-452 562.5,-452 565.5,-455 565.5,-458 565.5,-458 565.5,-464 565.5,-464 565.5,-467 562.5,-470 559.5,-470" />
                    <text text-anchor="start" x="521" y="-458.8" font-family="Helvetica,sans-Serif" font-size="9.00">gcp.json</text>
                </a>
            </g>
        </g>
        <!-- src/domain/data/serviceSlaData.ts&#45;&gt;src/domain/data/aws.json -->
        <g id="edge5" class="edge">
            <title>src/domain/data/serviceSlaData.ts&#45;&gt;src/domain/data/aws.json</title>
            <path fill="none" stroke="#000000" stroke-width="2" stroke-opacity="0.200000" d="M430.89,-411.66C454.51,-409.3 483.26,-406.42 504.95,-404.26" />
            <polygon fill="#000000" fill-opacity="0.200000" stroke="#000000" stroke-width="2" stroke-opacity="0.200000" points="505.39,-406.32 511.15,-403.63 504.97,-402.14 505.39,-406.32" />
        </g>
        <!-- src/domain/data/serviceSlaData.ts&#45;&gt;src/domain/data/azure.json -->
        <g id="edge6" class="edge">
            <title>src/domain/data/serviceSlaData.ts&#45;&gt;src/domain/data/azure.json</title>
            <path fill="none" stroke="#000000" stroke-width="2" stroke-opacity="0.200000" d="M430.89,-420.34C453.72,-422.62 481.35,-425.38 502.76,-427.53" />
            <polygon fill="#000000" fill-opacity="0.200000" stroke="#000000" stroke-width="2" stroke-opacity="0.200000" points="502.72,-429.63 508.9,-428.14 503.14,-425.45 502.72,-429.63" />
        </g>
        <!-- src/domain/data/serviceSlaData.ts&#45;&gt;src/domain/data/gcp.json -->
        <g id="edge7" class="edge">
            <title>src/domain/data/serviceSlaData.ts&#45;&gt;src/domain/data/gcp.json</title>
            <path fill="none" stroke="#000000" stroke-width="2" stroke-opacity="0.200000" d="M406.22,-425.13C420.42,-431.73 440.57,-440.44 459,-446 473.99,-450.52 491.03,-453.97 505.39,-456.42" />
            <polygon fill="#000000" fill-opacity="0.200000" stroke="#000000" stroke-width="2" stroke-opacity="0.200000" points="505.1,-458.5 511.36,-457.41 505.78,-454.36 505.1,-458.5" />
        </g>
        <!-- src/domain/errors/InvalidServiceDataError.ts -->
        <g id="node14" class="node">
            <title>src/domain/errors/InvalidServiceDataError.ts</title>
            <g id="a_node14">
                <a xlink:href="src/domain/errors/InvalidServiceDataError.ts" xlink:title="InvalidServiceDataError.ts">
                    <path fill="#ddfeff" stroke="black" d="M594,-290C594,-290 483,-290 483,-290 480,-290 477,-287 477,-284 477,-284 477,-278 477,-278 477,-275 480,-272 483,-272 483,-272 594,-272 594,-272 597,-272 600,-275 600,-278 600,-278 600,-284 600,-284 600,-287 597,-290 594,-290" />
                    <text text-anchor="start" x="485" y="-278.8" font-family="Helvetica,sans-Serif" font-size="9.00">InvalidServiceDataError.ts</text>
                </a>
            </g>
        </g>
        <!-- src/domain/errors/InvalidServiceInputDataError.ts -->
        <g id="node15" class="node">
            <title>src/domain/errors/InvalidServiceInputDataError.ts</title>
            <g id="a_node15">
                <a xlink:href="src/domain/errors/InvalidServiceInputDataError.ts" xlink:title="InvalidServiceInputDataError.ts">
                    <path fill="#ddfeff" stroke="black" d="M604,-200C604,-200 473,-200 473,-200 470,-200 467,-197 467,-194 467,-194 467,-188 467,-188 467,-185 470,-182 473,-182 473,-182 604,-182 604,-182 607,-182 610,-185 610,-188 610,-188 610,-194 610,-194 610,-197 607,-200 604,-200" />
                    <text text-anchor="start" x="475" y="-188.8" font-family="Helvetica,sans-Serif" font-size="9.00">InvalidServiceInputDataError.ts</text>
                </a>
            </g>
        </g>
        <!-- src/domain/errors/MissingItemsToValidateError.ts -->
        <g id="node16" class="node">
            <title>src/domain/errors/MissingItemsToValidateError.ts</title>
            <g id="a_node16">
                <a xlink:href="src/domain/errors/MissingItemsToValidateError.ts" xlink:title="MissingItemsToValidateError.ts">
                    <path fill="#ddfeff" stroke="black" d="M603.5,-260C603.5,-260 473.5,-260 473.5,-260 470.5,-260 467.5,-257 467.5,-254 467.5,-254 467.5,-248 467.5,-248 467.5,-245 470.5,-242 473.5,-242 473.5,-242 603.5,-242 603.5,-242 606.5,-242 609.5,-245 609.5,-248 609.5,-248 609.5,-254 609.5,-254 609.5,-257 606.5,-260 603.5,-260" />
                    <text text-anchor="start" x="475.5" y="-248.8" font-family="Helvetica,sans-Serif" font-size="9.00">MissingItemsToValidateError.ts</text>
                </a>
            </g>
        </g>
        <!-- src/domain/errors/UnknownInputError.ts -->
        <g id="node17" class="node">
            <title>src/domain/errors/UnknownInputError.ts</title>
            <g id="a_node17">
                <a xlink:href="src/domain/errors/UnknownInputError.ts" xlink:title="UnknownInputError.ts">
                    <path fill="#ddfeff" stroke="black" d="M585,-230C585,-230 492,-230 492,-230 489,-230 486,-227 486,-224 486,-224 486,-218 486,-218 486,-215 489,-212 492,-212 492,-212 585,-212 585,-212 588,-212 591,-215 591,-218 591,-218 591,-224 591,-224 591,-227 588,-230 585,-230" />
                    <text text-anchor="start" x="494" y="-218.8" font-family="Helvetica,sans-Serif" font-size="9.00">UnknownInputError.ts</text>
                </a>
            </g>
        </g>
        <!-- src/domain/interfaces/ServiceEntry.ts -->
        <g id="node18" class="node">
            <title>src/domain/interfaces/ServiceEntry.ts</title>
            <g id="a_node18">
                <a xlink:href="src/domain/interfaces/ServiceEntry.ts" xlink:title="ServiceEntry.ts">
                    <path fill="#ccffcc" stroke="black" d="M419,-290C419,-290 354,-290 354,-290 351,-290 348,-287 348,-284 348,-284 348,-278 348,-278 348,-275 351,-272 354,-272 354,-272 419,-272 419,-272 422,-272 425,-275 425,-278 425,-278 425,-284 425,-284 425,-287 422,-290 419,-290" />
                    <text text-anchor="start" x="356" y="-278.8" font-family="Helvetica,sans-Serif" font-size="9.00">ServiceEntry.ts</text>
                </a>
            </g>
        </g>
        <!-- src/domain/interfaces/ServiceSla.ts -->
        <g id="node19" class="node">
            <title>src/domain/interfaces/ServiceSla.ts</title>
            <g id="a_node19">
                <a xlink:href="src/domain/interfaces/ServiceSla.ts" xlink:title="ServiceSla.ts">
                    <path fill="#ccffcc" stroke="black" d="M415.5,-260C415.5,-260 357.5,-260 357.5,-260 354.5,-260 351.5,-257 351.5,-254 351.5,-254 351.5,-248 351.5,-248 351.5,-245 354.5,-242 357.5,-242 357.5,-242 415.5,-242 415.5,-242 418.5,-242 421.5,-245 421.5,-248 421.5,-248 421.5,-254 421.5,-254 421.5,-257 418.5,-260 415.5,-260" />
                    <text text-anchor="start" x="359.5" y="-248.8" font-family="Helvetica,sans-Serif" font-size="9.00">ServiceSla.ts</text>
                </a>
            </g>
        </g>
        <!-- src/domain/interfaces/ServiceSlaAggregate.ts -->
        <g id="node20" class="node">
            <title>src/domain/interfaces/ServiceSlaAggregate.ts</title>
            <g id="a_node20">
                <a xlink:href="src/domain/interfaces/ServiceSlaAggregate.ts" xlink:title="ServiceSlaAggregate.ts">
                    <path fill="#ccffcc" stroke="black" d="M437,-230C437,-230 336,-230 336,-230 333,-230 330,-227 330,-224 330,-224 330,-218 330,-218 330,-215 333,-212 336,-212 336,-212 437,-212 437,-212 440,-212 443,-215 443,-218 443,-218 443,-224 443,-224 443,-227 440,-230 437,-230" />
                    <text text-anchor="start" x="338" y="-218.8" font-family="Helvetica,sans-Serif" font-size="9.00">ServiceSlaAggregate.ts</text>
                </a>
            </g>
        </g>
        <!-- src/domain/interfaces/SlaMaxInput.ts -->
        <g id="node21" class="node">
            <title>src/domain/interfaces/SlaMaxInput.ts</title>
            <g id="a_node21">
                <a xlink:href="src/domain/interfaces/SlaMaxInput.ts" xlink:title="SlaMaxInput.ts">
                    <path fill="#ccffcc" stroke="black" d="M419,-200C419,-200 354,-200 354,-200 351,-200 348,-197 348,-194 348,-194 348,-188 348,-188 348,-185 351,-182 354,-182 354,-182 419,-182 419,-182 422,-182 425,-185 425,-188 425,-188 425,-194 425,-194 425,-197 422,-200 419,-200" />
                    <text text-anchor="start" x="356" y="-188.8" font-family="Helvetica,sans-Serif" font-size="9.00">SlaMaxInput.ts</text>
                </a>
            </g>
        </g>
        <!-- src/domain/valueObjects/ServiceEntries.ts&#45;&gt;src/domain/errors/InvalidServiceInputDataError.ts -->
        <g id="edge8" class="edge">
            <title>src/domain/valueObjects/ServiceEntries.ts&#45;&gt;src/domain/errors/InvalidServiceInputDataError.ts</title>
            <path fill="none" stroke="#000000" stroke-width="2" stroke-opacity="0.200000" d="M429.29,-103.45C437.49,-105.81 445.3,-109.7 451,-116 469.05,-135.94 440.52,-156.45 459,-176 459.89,-176.95 460.83,-177.84 461.8,-178.69" />
            <polygon fill="#000000" fill-opacity="0.200000" stroke="#000000" stroke-width="2" stroke-opacity="0.200000" points="460.87,-180.62 466.92,-182.56 463.4,-177.27 460.87,-180.62" />
        </g>
        <!-- src/domain/valueObjects/ServiceEntries.ts&#45;&gt;src/domain/errors/MissingItemsToValidateError.ts -->
        <g id="edge9" class="edge">
            <title>src/domain/valueObjects/ServiceEntries.ts&#45;&gt;src/domain/errors/MissingItemsToValidateError.ts</title>
            <path fill="none" stroke="#000000" stroke-width="2" stroke-opacity="0.200000" d="M429.28,-103.08C437.58,-105.44 445.44,-109.43 451,-116 468.27,-136.39 441.29,-215.98 459,-236 460.09,-237.23 461.24,-238.37 462.45,-239.44" />
            <polygon fill="#000000" fill-opacity="0.200000" stroke="#000000" stroke-width="2" stroke-opacity="0.200000" points="461.35,-241.24 467.39,-243.2 463.89,-237.9 461.35,-241.24" />
        </g>
        <!-- src/domain/valueObjects/ServiceEntries.ts&#45;&gt;src/domain/errors/UnknownInputError.ts -->
        <g id="edge10" class="edge">
            <title>src/domain/valueObjects/ServiceEntries.ts&#45;&gt;src/domain/errors/UnknownInputError.ts</title>
            <path fill="none" stroke="#000000" stroke-width="2" stroke-opacity="0.200000" d="M429.17,-103.17C437.48,-105.53 445.36,-109.49 451,-116 464.14,-131.18 445.53,-191.11 459,-206 464.56,-212.15 471.81,-216.25 479.64,-218.91" />
            <polygon fill="#000000" fill-opacity="0.200000" stroke="#000000" stroke-width="2" stroke-opacity="0.200000" points="479.39,-221.02 485.73,-220.68 480.56,-216.99 479.39,-221.02" />
        </g>
        <!-- src/domain/valueObjects/ServiceSlas.ts&#45;&gt;src/domain/errors/InvalidServiceDataError.ts -->
        <g id="edge11" class="edge">
            <title>src/domain/valueObjects/ServiceSlas.ts&#45;&gt;src/domain/errors/InvalidServiceDataError.ts</title>
            <path fill="none" stroke="#000000" stroke-width="2" stroke-opacity="0.200000" d="M412.11,-140.01C425.96,-146.44 442.2,-156.53 451,-171 462.01,-189.1 444.82,-250.26 459,-266 462.54,-269.93 466.76,-273.02 471.38,-275.44" />
            <polygon fill="#000000" fill-opacity="0.200000" stroke="#000000" stroke-width="2" stroke-opacity="0.200000" points="470.65,-277.41 476.98,-277.97 472.38,-273.58 470.65,-277.41" />
        </g>
        <!-- src/domain/valueObjects/ServiceSlas.ts&#45;&gt;src/domain/errors/MissingItemsToValidateError.ts -->
        <g id="edge12" class="edge">
            <title>src/domain/valueObjects/ServiceSlas.ts&#45;&gt;src/domain/errors/MissingItemsToValidateError.ts</title>
            <path fill="none" stroke="#000000" stroke-width="2" stroke-opacity="0.200000" d="M411.91,-140.14C425.69,-146.61 441.92,-156.7 451,-171 466.6,-195.57 439.11,-214.75 459,-236 460.08,-237.15 461.22,-238.23 462.41,-239.24" />
            <polygon fill="#000000" fill-opacity="0.200000" stroke="#000000" stroke-width="2" stroke-opacity="0.200000" points="461.16,-240.93 467.23,-242.81 463.66,-237.56 461.16,-240.93" />
        </g>
        <!-- src/index.ts -->
        <g id="node24" class="node">
            <title>src/index.ts</title>
            <g id="a_node24">
                <a xlink:href="src/index.ts" xlink:title="index.ts">
                    <path fill="#ddfeff" stroke="black" d="M64,-115C64,-115 22,-115 22,-115 19,-115 16,-112 16,-109 16,-109 16,-103 16,-103 16,-100 19,-97 22,-97 22,-97 64,-97 64,-97 67,-97 70,-100 70,-103 70,-103 70,-109 70,-109 70,-112 67,-115 64,-115" />
                    <text text-anchor="start" x="27" y="-103.8" font-family="Helvetica,sans-Serif" font-size="9.00">index.ts</text>
                </a>
            </g>
        </g>
        <!-- src/index.ts&#45;&gt;src/adapters/library.ts -->
        <g id="edge13" class="edge">
            <title>src/index.ts&#45;&gt;src/adapters/library.ts</title>
            <path fill="none" stroke="#000000" stroke-width="2" stroke-opacity="0.200000" d="M70.1,-106C73.12,-106 76.23,-106 79.33,-106" />
            <polygon fill="#000000" fill-opacity="0.200000" stroke="#000000" stroke-width="2" stroke-opacity="0.200000" points="79.64,-108.1 85.64,-106 79.64,-103.9 79.64,-108.1" />
        </g>
    </g>
</svg>